<?xml version="1.0" encoding="UTF-8"?>
<svg version="1.1" xmlns="http://www.w3.org/2000/svg" width="225" height="225">
<path d="M0 0 C8.2782709 6.72636883 15.72185364 14.54250864 23.26953125 22.06640625 C23.88297583 22.67702345 24.4964204 23.28764065 25.12845421 23.9167614 C28.36589972 27.13934377 31.60056 30.36468973 34.83276367 33.5925293 C38.15225783 36.90651308 41.48095501 40.21109128 44.81183338 43.51362705 C47.39321256 46.07632662 49.96780501 48.64576418 52.54062462 51.21705437 C53.76484003 52.43826208 54.99153339 53.65699137 56.22083473 54.8730793 C72.42232689 70.91257652 72.42232689 70.91257652 73 79 C73.061875 79.72960937 73.12375 80.45921875 73.1875 81.2109375 C73.64490051 90.50188542 70.39691216 96.89627393 64.3671875 103.78515625 C63 105 63 105 61 105 C60.731875 105.639375 60.46375 106.27875 60.1875 106.9375 C59 109 59 109 56 110 C55.67 110.99 55.34 111.98 55 113 C54.34 113 53.68 113 53 113 C52.64421875 113.84304687 52.64421875 113.84304687 52.28125 114.703125 C50.71052303 117.51894042 48.78528536 119.47955416 46.5 121.75 C45.7059375 122.54921875 44.911875 123.3484375 44.09375 124.171875 C42 126 42 126 40 126 C39.7421875 126.58265625 39.484375 127.1653125 39.21875 127.765625 C37.90165983 130.1802903 36.44911616 131.81740177 34.5 133.75 C33.8915625 134.36359375 33.283125 134.9771875 32.65625 135.609375 C31 137 31 137 29 137 C28.731875 137.639375 28.46375 138.27875 28.1875 138.9375 C27 141 27 141 24 142 C23.31513275 143.32407669 22.65129797 144.65909241 22 146 C20 148.25 20 148.25 18 150 C17.34 150 16.68 150 16 150 C15.67 150.99 15.34 151.98 15 153 C14.34 153 13.68 153 13 153 C12.731875 153.639375 12.46375 154.27875 12.1875 154.9375 C11 157 11 157 8 158 C7.71125 158.598125 7.4225 159.19625 7.125 159.8125 C4.44894053 165.01594896 -0.7563967 167.03364876 -6 169 C-13.92972679 171.18067487 -20.36737392 169.97351723 -27.48364258 166.10742188 C-33.52375035 162.27318647 -38.33449896 157.03611194 -43.32421875 151.96875 C-44.39873647 150.88862293 -45.47392893 149.80916672 -46.54975891 148.73034668 C-49.36402694 145.90469873 -52.16917454 143.07016715 -54.97241211 140.23358154 C-57.82055562 137.35472673 -60.67721306 134.48434826 -63.53320312 131.61328125 C-68.55970604 126.55817812 -73.57873862 121.49576331 -78.59233093 116.42785645 C-79.38686172 115.62666382 -80.18139252 114.82547119 -81 114 C-82.32890007 112.65959656 -82.32890007 112.65959656 -83.68464661 111.29211426 C-86.17168923 108.83003401 -88.79804426 106.68457831 -91.546875 104.52734375 C-93.25266336 102.73443179 -93.60569751 101.41250866 -94 99 C-94.66 99 -95.32 99 -96 99 C-99.53455228 91.86777844 -101.54062848 84.96150865 -100 77 C-96.77223532 68.33062822 -91.15182528 62.48553557 -84.625 56.13671875 C-83.61169307 55.13276685 -82.59950621 54.12768332 -81.58837891 53.12153625 C-78.94463563 50.49671642 -76.28624396 47.88725441 -73.62426758 45.28094482 C-70.92274925 42.6306916 -68.2354021 39.96615427 -65.546875 37.30273438 C-60.81371525 32.61717584 -56.0684964 27.94420207 -51.31396484 23.28031921 C-47.73569891 19.75408216 -44.18254343 16.20617086 -40.6953125 12.58984375 C-39.50532902 11.37227787 -38.31522277 10.15483197 -37.125 8.9375 C-36.53847656 8.32583984 -35.95195313 7.71417969 -35.34765625 7.08398438 C-25.91768718 -2.50142375 -12.50663418 -7.25786944 0 0 Z M-55 41 C-55 41.66 -55 42.32 -55 43 C-55.99 43.33 -56.98 43.66 -58 44 C-63.68323202 50.42393761 -67.18273723 57.97740406 -70 66 C-70.2475 66.70253906 -70.495 67.40507813 -70.75 68.12890625 C-73.87847741 79.23065594 -73.2424128 93.36158318 -69 104 C-68.62101562 104.96035156 -68.24203125 105.92070312 -67.8515625 106.91015625 C-61.3747533 121.41746008 -48.79572365 133.22106085 -34 139 C-17.2867123 144.00997833 -1.79646546 142.86434046 13.94921875 135.6484375 C24.09081598 129.94876433 31.95480749 121.85980597 38 112 C38.39960938 111.37867188 38.79921875 110.75734375 39.2109375 110.1171875 C46.61599588 97.25577032 46.53038245 80.05336236 43 66.1015625 C41.50245691 61.456839 39.41593441 57.23027251 37 53 C36.34 53 35.68 53 35 53 C34.773125 52.1234375 34.54625 51.246875 34.3125 50.34375 C30.77119639 41.32185746 20.62161582 33.90053792 12 30 C-10.63815994 20.63592064 -36.7570952 23.50619999 -55 41 Z " fill="#0237FA" transform="translate(126,29)"/>
<path d="M0 0 C5.12309131 3.79858478 5.12309131 3.79858478 7.40234375 5.78125 C7.40234375 6.44125 7.40234375 7.10125 7.40234375 7.78125 C8.06234375 7.78125 8.72234375 7.78125 9.40234375 7.78125 C9.40234375 8.44125 9.40234375 9.10125 9.40234375 9.78125 C10.06234375 9.78125 10.72234375 9.78125 11.40234375 9.78125 C12.70270146 12.13096614 13.99263844 14.48549337 15.27734375 16.84375 C15.82455078 17.82891602 15.82455078 17.82891602 16.3828125 18.83398438 C22.33702045 29.82220451 24.26220002 42.95345524 21.27734375 55.15625 C16.38177519 71.22550052 6.90037573 83.05802538 -7.9140625 91.02734375 C-20.08568088 96.80621648 -33.64836056 97.40641958 -46.59765625 93.78125 C-53.4174644 91.08380838 -60.14430345 87.73513684 -65.59765625 82.78125 C-65.59765625 82.12125 -65.59765625 81.46125 -65.59765625 80.78125 C-66.91765625 80.12125 -68.23765625 79.46125 -69.59765625 78.78125 C-69.59765625 78.12125 -69.59765625 77.46125 -69.59765625 76.78125 C-70.58765625 76.45125 -71.57765625 76.12125 -72.59765625 75.78125 C-74.08471715 73.2547188 -75.39485913 70.79013379 -76.66015625 68.15625 C-77.01142578 67.45628906 -77.36269531 66.75632812 -77.72460938 66.03515625 C-83.61705963 54.0274788 -84.64420602 40.77746915 -81.03515625 27.84375 C-78.78803591 21.54704882 -75.53103848 16.1614931 -71.59765625 10.78125 C-71.13617188 10.13542969 -70.6746875 9.48960938 -70.19921875 8.82421875 C-53.13465452 -13.02434181 -22.0020647 -14.91665403 0 0 Z M-70.59765625 34.78125 C-72.80169024 38.92906304 -73.82600566 42.43652572 -73.03515625 47.09375 C-71.01127872 50.87752104 -69.26560652 53.18249862 -65.16015625 54.65625 C-62.5627593 54.9681056 -62.5627593 54.9681056 -60.22265625 53.78125 C-57.59765625 52.78125 -57.59765625 52.78125 -50.59765625 53.78125 C-50.59765625 46.85125 -50.59765625 39.92125 -50.59765625 32.78125 C-52.24765625 32.45125 -53.89765625 32.12125 -55.59765625 31.78125 C-55.59765625 32.44125 -55.59765625 33.10125 -55.59765625 33.78125 C-56.69078125 33.45125 -57.78390625 33.12125 -58.91015625 32.78125 C-64.03343622 31.39188594 -66.46698106 31.37344297 -70.59765625 34.78125 Z M-43.91015625 35.28125 C-46.57329238 39.22663685 -46.35122679 43.1702936 -45.59765625 47.78125 C-43.49261034 51.33805172 -42.51358817 52.47593936 -38.59765625 53.78125 C-36.41331915 54.01380026 -36.41331915 54.01380026 -34.09765625 54.03125 C-32.9375 54.06992188 -32.9375 54.06992188 -31.75390625 54.109375 C-29.10934787 53.7069422 -28.26524823 52.81229151 -26.59765625 50.78125 C-28.36889146 48.54310381 -28.36889146 48.54310381 -30.65625 48.76171875 C-31.83380859 48.86419922 -31.83380859 48.86419922 -33.03515625 48.96875 C-35.45703125 49.0234375 -35.45703125 49.0234375 -37.59765625 48.78125 C-39.78515625 46.59375 -39.78515625 46.59375 -40.59765625 43.78125 C-39.93485242 41.35096928 -39.39655905 39.5801528 -37.59765625 37.78125 C-36.31890625 37.8225 -35.04015625 37.86375 -33.72265625 37.90625 C-30.3997151 38.00570211 -30.3997151 38.00570211 -27.59765625 36.28125 C-27.26765625 35.78625 -26.93765625 35.29125 -26.59765625 34.78125 C-31.7326924 29.64621385 -38.57574142 31.82108903 -43.91015625 35.28125 Z M-14.5625 32.78125 C-16.59765625 33.78125 -16.59765625 33.78125 -21.59765625 32.78125 C-21.59765625 39.71125 -21.59765625 46.64125 -21.59765625 53.78125 C-19.94765625 53.78125 -18.29765625 53.78125 -16.59765625 53.78125 C-16.50677734 52.17443359 -16.50677734 52.17443359 -16.4140625 50.53515625 C-16.32967088 49.13800609 -16.24502219 47.74087143 -16.16015625 46.34375 C-16.10118164 45.28317383 -16.10118164 45.28317383 -16.04101562 44.20117188 C-15.7109375 38.89453125 -15.7109375 38.89453125 -14.59765625 37.78125 C-12.59807261 37.74044217 -10.59720371 37.73870644 -8.59765625 37.78125 C-7.11687145 40.7428196 -7.24451588 43.61631295 -7.03515625 46.90625 C-6.95136719 48.18757813 -6.86757812 49.46890625 -6.78125 50.7890625 C-6.72066406 51.77648437 -6.66007812 52.76390625 -6.59765625 53.78125 C-5.27765625 53.78125 -3.95765625 53.78125 -2.59765625 53.78125 C-2.50677734 52.69457031 -2.50677734 52.69457031 -2.4140625 51.5859375 C-1.98282192 46.61008467 -1.52717984 41.69444609 -0.59765625 36.78125 C1.71234375 36.78125 4.02234375 36.78125 6.40234375 36.78125 C6.89734375 45.19625 6.89734375 45.19625 7.40234375 53.78125 C9.05234375 53.78125 10.70234375 53.78125 12.40234375 53.78125 C12.48342021 51.03065619 12.54287188 48.28245979 12.58984375 45.53125 C12.61498047 44.75394531 12.64011719 43.97664063 12.66601562 43.17578125 C12.71020865 39.72872547 12.7167056 37.39836649 11.1328125 34.2890625 C8.31886249 31.83717829 5.00085097 31.67436365 1.40234375 31.78125 C0.19578125 32.3071875 0.19578125 32.3071875 -1.03515625 32.84375 C-4.55667381 34.13211008 -6.90151572 33.16516808 -10.4140625 32.09375 C-12.63375013 31.56243957 -12.63375013 31.56243957 -14.5625 32.78125 Z " fill="#0137FC" transform="translate(142.59765625,69.21875)"/>
<path d="M0 0 C3.44545899 2.3359044 6.79549618 4.76684873 9.9375 7.5 C9.9375 8.16 9.9375 8.82 9.9375 9.5 C10.5975 9.5 11.2575 9.5 11.9375 9.5 C11.9375 10.16 11.9375 10.82 11.9375 11.5 C12.5975 11.5 13.2575 11.5 13.9375 11.5 C17.36607143 19.92857143 17.36607143 19.92857143 16.9375 24.5 C17.5975 24.83 18.2575 25.16 18.9375 25.5 C18.6075 27.15 18.2775 28.8 17.9375 30.5 C17.2775 30.5 16.6175 30.5 15.9375 30.5 C15.2775 31.82 14.6175 33.14 13.9375 34.5 C13.6075 34.17 13.2775 33.84 12.9375 33.5 C11.42280552 33.26807135 9.89995438 33.08784762 8.375 32.9375 C7.54871094 32.85371094 6.72242188 32.76992187 5.87109375 32.68359375 C5.23300781 32.62300781 4.59492188 32.56242187 3.9375 32.5 C3.9375 33.16 3.9375 33.82 3.9375 34.5 C1.10401479 34.66191344 -0.76864264 34.63087765 -3.38671875 33.46484375 C-6.49674929 32.34341668 -8.43271936 32.50263261 -11.6875 32.9375 C-15.08539213 33.37969144 -16.76954254 33.59765249 -20.0625 32.5 C-20.0625 33.16 -20.0625 33.82 -20.0625 34.5 C-21.875 35.1875 -21.875 35.1875 -24.0625 35.5 C-25.75 34.0625 -25.75 34.0625 -27.0625 32.5 C-29.23325655 32.5 -31.39935565 32.71332169 -33.5625 32.875 C-35.06296875 32.97941406 -35.06296875 32.97941406 -36.59375 33.0859375 C-37.81578125 33.29089844 -37.81578125 33.29089844 -39.0625 33.5 C-39.5575 34.49 -39.5575 34.49 -40.0625 35.5 C-41.0525 35.17 -42.0425 34.84 -43.0625 34.5 C-43.0625 33.84 -43.0625 33.18 -43.0625 32.5 C-44.0525 32.83 -45.0425 33.16 -46.0625 33.5 C-51.9103645 33.46379031 -57.32817048 33.25481306 -62.0625 29.5 C-62.0625 30.16 -62.0625 30.82 -62.0625 31.5 C-63.71782623 32.51866229 -65.38510138 33.51810813 -67.0625 34.5 C-67.3925 35.16 -67.7225 35.82 -68.0625 36.5 C-68.7225 36.5 -69.3825 36.5 -70.0625 36.5 C-71.0525 41.78 -72.0425 47.06 -73.0625 52.5 C-74.0525 52.5 -75.0425 52.5 -76.0625 52.5 C-76.0625 50.85 -76.0625 49.2 -76.0625 47.5 C-76.7225 47.5 -77.3825 47.5 -78.0625 47.5 C-78.46045352 35.47296029 -76.53181654 25.24258679 -69.0625 15.5 C-68.5365625 13.89125 -68.5365625 13.89125 -68 12.25 C-64.66235008 4.03832161 -54.31216751 -1.13764962 -46.5625 -4.625 C-31.27601846 -10.60666669 -13.88640047 -8.62106304 0 0 Z " fill="#0137FB" transform="translate(140.0625,67.5)"/>
<path d="M0 0 C0 0.66 0 1.32 0 2 C1.65 2 3.3 2 5 2 C5 2.66 5 3.32 5 4 C10.61 4 16.22 4 22 4 C22 4.99 22 5.98 22 7 C24.97953359 6.85982174 27.95849304 6.71313658 30.9375 6.5625 C32.21270508 6.50352539 32.21270508 6.50352539 33.51367188 6.44335938 C34.32255859 6.40146484 35.13144531 6.35957031 35.96484375 6.31640625 C36.7137085 6.27974854 37.46257324 6.24309082 38.23413086 6.20532227 C40.02461326 6.18228937 40.02461326 6.18228937 41 5 C43.33297433 4.95907063 45.66705225 4.95758277 48 5 C48 4.34 48 3.68 48 3 C52.22949995 0.58314288 55.12335991 -0.34833144 60 0 C60 0.99 60 1.98 60 3 C60.66 3 61.32 3 62 3 C61.75 5.875 61.75 5.875 61 9 C59 10.125 59 10.125 57 11 C56.19471111 13.05000871 56.19471111 13.05000871 56 15 C55.34 15 54.68 15 54 15 C54 15.66 54 16.32 54 17 C53.34 17 52.68 17 52 17 C52 17.66 52 18.32 52 19 C51.01 19 50.02 19 49 19 C48.9071875 19.86625 48.9071875 19.86625 48.8125 20.75 C47.15384539 25.34319738 42.13784599 27.77192908 38 30 C34.15389802 31.35108969 30.26358738 31.10535449 26.25 30.9375 C25.23292969 30.93459961 25.23292969 30.93459961 24.1953125 30.93164062 C13.77928222 30.46628566 6.86841714 21.18172052 0 14.25 C-0.87011719 13.38761719 -1.74023438 12.52523437 -2.63671875 11.63671875 C-3.45785156 10.81300781 -4.27898437 9.98929688 -5.125 9.140625 C-5.87007813 8.39329102 -6.61515625 7.64595703 -7.3828125 6.87597656 C-9 5 -9 5 -9 3 C-6.04341306 0.15291628 -4.05047276 -0.3375394 0 0 Z " fill="#0238FB" transform="translate(84,166)"/>
<path d="M0 0 C8.37298584 6.78391872 15.85208161 14.72095839 23.4453125 22.34765625 C24.7087538 23.61296731 25.97241953 24.8780543 27.23629761 26.14292908 C30.52965711 29.44006981 33.82000002 32.7402044 37.10968018 36.04101562 C40.48012396 39.42176907 43.85347232 42.79962169 47.2265625 46.17773438 C53.82052149 52.78235298 60.41129079 59.39014454 67 66 C66.67 66.66 66.34 67.32 66 68 C65.54149658 67.53102295 65.08299316 67.0620459 64.6105957 66.57885742 C62.51657495 64.44308837 60.41465167 62.31526535 58.3125 60.1875 C57.59126953 59.44951172 56.87003906 58.71152344 56.12695312 57.95117188 C55.42119141 57.23896484 54.71542969 56.52675781 53.98828125 55.79296875 C53.34415283 55.1383667 52.70002441 54.48376465 52.03637695 53.80932617 C49.83743071 51.85555677 47.56051942 50.4367683 45 49 C44.01 50.65 43.02 52.3 42 54 C41.67 53.01 41.34 52.02 41 51 C42 49 42 49 43 48 C42.01 48 41.02 48 40 48 C38.93849826 51.28100538 38.85196765 52.65952561 40.25 55.875 C40.8275 56.90625 41.405 57.9375 42 59 C43.9849806 63.19051459 45.42486558 66.32647866 45 71 C45.66 71.33 46.32 71.66 47 72 C47.05455703 74.97941998 47.09393851 77.95781531 47.125 80.9375 C47.15013672 82.18370117 47.15013672 82.18370117 47.17578125 83.45507812 C47.22107288 89.27505267 46.4456695 94.3596123 45 100 C44.34 100 43.68 100 43 100 C43.10828125 99.03513672 43.10828125 99.03513672 43.21875 98.05078125 C44.79882833 82.66696306 44.57287202 68.84007645 37 55 C37 54.34 37 53.68 37 53 C36.34 53 35.68 53 35 53 C33.9921875 51.53125 33.9921875 51.53125 32.875 49.5 C25.25465693 36.92532309 13.74396636 31.01456062 0 27 C0 26.67 0 26.34 0 26 C5.27315333 26.4452885 10.01770224 27.08373163 15 29 C15 28.34 15 27.68 15 27 C15.99 27.33 16.98 27.66 18 28 C18 28.99 18 29.98 18 31 C21.0109362 28.9927092 21.63016497 28.16115776 23 25 C20.09219512 22.01793871 17.17458491 19.04593206 14.24755859 16.08276367 C13.25360447 15.07373981 12.26236165 14.06203755 11.27392578 13.04760742 C9.85115723 11.58837596 8.41885738 10.13911278 6.984375 8.69140625 C6.12553711 7.81685791 5.26669922 6.94230957 4.38183594 6.04125977 C2.11249434 4.09640889 0.91618761 3.35714443 -2 3 C-2 2.34 -2 1.68 -2 1 C-4.31 0.67 -6.62 0.34 -9 0 C-9 -0.66 -9 -1.32 -9 -2 C-15.1377404 -1.6103022 -19.59099592 -0.58174047 -25.0546875 2.2578125 C-27 3 -27 3 -30 2 C-20.67182054 -3.56103006 -9.95572081 -5.77423797 0 0 Z " fill="#0737F5" transform="translate(126,29)"/>
<path d="M0 0 C0.33 0.99 0.66 1.98 1 3 C0.443125 3.680625 -0.11375 4.36125 -0.6875 5.0625 C-6.18525753 12.04613795 -7.45619509 19.38976929 -7.82421875 28.1171875 C-7.97390102 30.57197665 -8.30287193 32.65356894 -9 35 C-8.34 35 -7.68 35 -7 35 C-7 36.65 -7 38.3 -7 40 C-6.01 40 -5.02 40 -4 40 C-3.95101562 39.26394531 -3.90203125 38.52789062 -3.8515625 37.76953125 C-3.73941406 36.30580078 -3.73941406 36.30580078 -3.625 34.8125 C-3.55539063 33.84957031 -3.48578125 32.88664062 -3.4140625 31.89453125 C-2.99784147 28.98491062 -2.20125904 26.67109226 -1 24 C-0.34 24 0.32 24 1 24 C1.33 23.01 1.66 22.02 2 21 C4.5625 19.8125 4.5625 19.8125 7 19 C7 18.34 7 17.68 7 17 C8.01320313 17.47953125 8.01320313 17.47953125 9.046875 17.96875 C13.62181551 19.56634827 18.20631231 19.45669346 23.015625 19.65625 C24.00046875 19.7696875 24.9853125 19.883125 26 20 C26.495 20.99 26.495 20.99 27 22 C27.66 21.67 28.32 21.34 29 21 C29 20.67 29 20.34 29 20 C29.68707031 19.93941406 30.37414062 19.87882812 31.08203125 19.81640625 C31.98308594 19.73261719 32.88414063 19.64882812 33.8125 19.5625 C35.15248047 19.44068359 35.15248047 19.44068359 36.51953125 19.31640625 C39.12743559 19.06510233 39.12743559 19.06510233 42 18 C42.495 19.98 42.495 19.98 43 22 C41.783125 21.95875 40.56625 21.9175 39.3125 21.875 C35.00223718 21.88261531 31.84399017 22.55338301 28.38671875 25.265625 C26.5437914 27.57058203 26.59862607 29.01438915 26.625 31.9375 C26.61726563 32.79214844 26.60953125 33.64679688 26.6015625 34.52734375 C27.07794774 37.48373449 27.94591555 38.84465787 30 41 C32.79748841 41.93249614 34.54320881 42.13476152 37.4375 42.125 C38.19933594 42.12757812 38.96117187 42.13015625 39.74609375 42.1328125 C41.95315859 42.00276015 43.87969276 41.60856199 46 41 C45.505 41.99 45.505 41.99 45 43 C44.34 43 43.68 43 43 43 C43 43.66 43 44.32 43 45 C39.04 45 35.08 45 31 45 C31 44.34 31 43.68 31 43 C29.35 42.34 27.7 41.68 26 41 C26 40.01 26 39.02 26 38 C25.34 38 24.68 38 24 38 C24 39.98 24 41.96 24 44 C23.05125 44.28875 22.1025 44.5775 21.125 44.875 C17.94788422 45.76825109 17.94788422 45.76825109 16 48 C16 47.01 16 46.02 16 45 C15.67 45.99 15.34 46.98 15 48 C13.700625 47.773125 12.40125 47.54625 11.0625 47.3125 C5.81179172 46.69575014 1.81057518 47.98706429 -3 50 C-3.33 49.34 -3.66 48.68 -4 48 C-3.67 51.63 -3.34 55.26 -3 59 C-9.81936244 52.18063756 -11.51103607 42.2821615 -11.5625 32.9375 C-11.33155822 20.19542147 -7.38048952 10.34512435 0 0 Z M1 24 C-1.20403399 28.14781304 -2.22834941 31.65527572 -1.4375 36.3125 C0.58637753 40.09627104 2.33204973 42.40124862 6.4375 43.875 C9.03489695 44.1868556 9.03489695 44.1868556 11.375 43 C14 42 14 42 21 43 C21 36.07 21 29.14 21 22 C19.35 21.67 17.7 21.34 16 21 C16 21.66 16 22.32 16 23 C14.906875 22.67 13.81375 22.34 12.6875 22 C7.56422003 20.61063594 5.13067519 20.59219297 1 24 Z " fill="#0632E2" transform="translate(71,80)"/>
<path d="M0 0 C0.33 0 0.66 0 1 0 C1.50986991 5.37008145 -0.12927552 8.7363861 -2.875 13.1875 C-3.23980469 13.80302734 -3.60460937 14.41855469 -3.98046875 15.05273438 C-5.58772564 17.75000366 -7.25823757 20.38735636 -9 23 C-7.09643307 24.18729657 -7.09643307 24.18729657 -5.1875 23.75 C-2.54617022 22.84440122 -0.38307886 21.44238984 2 20 C2.66 20 3.32 20 4 20 C4 19.34 4 18.68 4 18 C4.66 18 5.32 18 6 18 C6.20625 17.4225 6.4125 16.845 6.625 16.25 C8.49750888 13.18589456 10.96958519 11.84460032 14 10 C13.67 10.99 13.34 11.98 13 13 C12.34 13 11.68 13 11 13 C10.7628125 13.56203125 10.525625 14.1240625 10.28125 14.703125 C8.71052303 17.51894042 6.78528536 19.47955416 4.5 21.75 C3.7059375 22.54921875 2.911875 23.3484375 2.09375 24.171875 C0 26 0 26 -2 26 C-2.38671875 26.87398437 -2.38671875 26.87398437 -2.78125 27.765625 C-4.09834017 30.1802903 -5.55088384 31.81740177 -7.5 33.75 C-8.41265625 34.67039062 -8.41265625 34.67039062 -9.34375 35.609375 C-11 37 -11 37 -13 37 C-13.268125 37.639375 -13.53625 38.27875 -13.8125 38.9375 C-15 41 -15 41 -18 42 C-18.68486725 43.32407669 -19.34870203 44.65909241 -20 46 C-22 48.25 -22 48.25 -24 50 C-24.66 50 -25.32 50 -26 50 C-26.33 50.99 -26.66 51.98 -27 53 C-27.66 53 -28.32 53 -29 53 C-29.268125 53.639375 -29.53625 54.27875 -29.8125 54.9375 C-31 57 -31 57 -34 58 C-34.28875 58.598125 -34.5775 59.19625 -34.875 59.8125 C-37.55105947 65.01594896 -42.7563967 67.03364876 -48 69 C-54.29639299 70.73150807 -59.93131832 70.36826602 -66 68 C-66 67.67 -66 67.34 -66 67 C-64.92621094 67.03480469 -63.85242188 67.06960937 -62.74609375 67.10546875 C-61.30991161 67.13362918 -59.87371238 67.16092691 -58.4375 67.1875 C-57.73302734 67.21263672 -57.02855469 67.23777344 -56.30273438 67.26367188 C-51.09202389 67.33570935 -47.680506 66.27874447 -43 64 C-42.21625 63.835 -41.4325 63.67 -40.625 63.5 C-39.820625 63.2525 -39.820625 63.2525 -39 63 C-38.67 62.01 -38.34 61.02 -38 60 C-37.01 59.505 -37.01 59.505 -36 59 C-35.67 58.01 -35.34 57.02 -35 56 C-34.01 56 -33.02 56 -32 56 C-32 55.34 -32 54.68 -32 54 C-31.34 54 -30.68 54 -30 54 C-30 53.34 -30 52.68 -30 52 C-29.34 52 -28.68 52 -28 52 C-27.896875 51.38125 -27.79375 50.7625 -27.6875 50.125 C-27 48 -27 48 -24 46 C-22.78715124 42.94570927 -22.78715124 42.94570927 -22 40 C-22.66 40 -23.32 40 -24 40 C-24 39.01 -24 38.02 -24 37 C-25.2375 37.309375 -26.475 37.61875 -27.75 37.9375 C-29.16666667 38.29166667 -30.58333333 38.64583333 -32 39 C-32.74765625 39.18691406 -33.4953125 39.37382812 -34.265625 39.56640625 C-34.83796875 39.70949219 -35.4103125 39.85257813 -36 40 C-36 40.66 -36 41.32 -36 42 C-37.134375 42.144375 -38.26875 42.28875 -39.4375 42.4375 C-42.80777201 42.61171478 -42.80777201 42.61171478 -44 44 C-45.34267413 44.08631874 -46.68974322 44.10706473 -48.03515625 44.09765625 C-48.84404297 44.09443359 -49.65292969 44.09121094 -50.48632812 44.08789062 C-51.33646484 44.07951172 -52.18660156 44.07113281 -53.0625 44.0625 C-53.91650391 44.05798828 -54.77050781 44.05347656 -55.65039062 44.04882812 C-57.76695663 44.03700373 -59.88348685 44.01906769 -62 44 C-62 43.34 -62 42.68 -62 42 C-61.15179688 41.97421875 -60.30359375 41.9484375 -59.4296875 41.921875 C-51.336877 41.53057427 -44.58540271 40.29727991 -36.86328125 37.83984375 C-34 37 -34 37 -31 37 C-30.505 36.01 -30.505 36.01 -30 35 C-28.906875 34.525625 -27.81375 34.05125 -26.6875 33.5625 C-14.04056559 27.36391276 -5.41315721 15.63391147 -0.7890625 2.58203125 C-0.52867187 1.72996094 -0.26828125 0.87789062 0 0 Z " fill="#0636F3" transform="translate(168,129)"/>
<path d="M0 0 C3 1.0625 3 1.0625 5 2 C2.70031945 3.4216207 1.50354023 4.07092116 -1.21875 3.6875 C-2.73958333 3.22916667 -4.26041667 2.77083333 -5.78125 2.3125 C-8.04057898 1.77063824 -8.04057898 1.77063824 -9.96875 3.0625 C-10.6390625 3.371875 -11.309375 3.68125 -12 4 C-13.65 3.34 -15.3 2.68 -17 2 C-17 8.93 -17 15.86 -17 23 C-15.35 23 -13.7 23 -12 23 C-12.02320312 21.94039062 -12.04640625 20.88078125 -12.0703125 19.7890625 C-12.08906944 18.4010487 -12.10726972 17.0130273 -12.125 15.625 C-12.14175781 14.92632812 -12.15851563 14.22765625 -12.17578125 13.5078125 C-12.19344267 11.67102514 -12.10303261 9.83398037 -12 8 C-10 6 -10 6 -7 5.6875 C-6.01 5.790625 -5.02 5.89375 -4 6 C-1.50881047 9.7367843 -1.7934774 11.74451819 -1.875 16.1875 C-1.89304688 17.45980469 -1.91109375 18.73210937 -1.9296875 20.04296875 C-1.95289063 21.01878906 -1.97609375 21.99460937 -2 23 C-0.68 23 0.64 23 2 23 C1.97679687 22.19175781 1.95359375 21.38351563 1.9296875 20.55078125 C1.91164062 19.48214844 1.89359375 18.41351563 1.875 17.3125 C1.85179687 16.25675781 1.82859375 15.20101562 1.8046875 14.11328125 C2.00464831 10.92590599 2.47656695 8.79968657 4 6 C7.13349732 4.95550089 7.98968256 5.06576355 11 6 C10.67 6.66 10.34 7.32 10 8 C8.68 8 7.36 8 6 8 C4.71553081 10.56893838 4.67022856 12.76576337 4.4375 15.625 C4.35371094 16.62789062 4.26992187 17.63078125 4.18359375 18.6640625 C4.09271484 19.82035156 4.09271484 19.82035156 4 21 C5.32 21.33 6.64 21.66 8 22 C7.505 23.485 7.505 23.485 7 25 C4.05151964 26.20619651 1.90646438 25.9885904 -1.125 25.1875 C-1.80820313 25.01605469 -2.49140625 24.84460938 -3.1953125 24.66796875 C-5 24 -5 24 -7 22 C-7.66 23.98 -8.32 25.96 -9 28 C-9.99 28 -10.98 28 -12 28 C-12 27.34 -12 26.68 -12 26 C-12.61875 25.855625 -13.2375 25.71125 -13.875 25.5625 C-16 25 -16 25 -18 24 C-18.26006351 21.3313938 -18.42139909 18.73724286 -18.5 16.0625 C-18.34451863 10.53016399 -18.34451863 10.53016399 -21 6 C-21.350625 6.515625 -21.70125 7.03125 -22.0625 7.5625 C-25.01333232 9.7518272 -27.48328907 8.50238728 -31 8 C-33.12870693 8.96117905 -33.12870693 8.96117905 -34 11 C-33.76956136 13.65466049 -33.76956136 13.65466049 -33 16 C-29.32589215 17.17571451 -25.83070817 17.07366746 -22 17 C-22.33 17.99 -22.66 18.98 -23 20 C-23.53625 19.835 -24.0725 19.67 -24.625 19.5 C-27.08958896 18.85452771 -27.08958896 18.85452771 -30 19.3125 C-33 19 -33 19 -35.5 16.3125 C-37 13 -37 13 -36.375 10.25 C-35 8 -35 8 -33 6 C-30.33333333 6 -27.66666667 6 -25 6 C-24.34 5.34 -23.68 4.68 -23 4 C-23.33 3.34 -23.66 2.68 -24 2 C-22.02 2 -20.04 2 -18 2 C-18 1.34 -18 0.68 -18 0 C-15.98177083 0.03255208 -13.96354167 0.06510417 -11.9453125 0.09765625 C-2.07952286 -0.39761431 -2.07952286 -0.39761431 0 0 Z " fill="#0637F4" transform="translate(138,100)"/>
<path d="M0 0 C3.13535801 1.3618735 4.92439192 2.79982817 7.078125 5.4375 C11.69987221 10.89283875 16.71048348 15.93252499 21.75 21 C22.70445895 21.97522923 23.65888623 22.95048945 24.61328125 23.92578125 C25.51949219 24.83714844 26.42570312 25.74851563 27.359375 26.6875 C28.17889648 27.51636719 28.99841797 28.34523437 29.84277344 29.19921875 C31.91549649 31.32041682 31.91549649 31.32041682 35 31 C35.33 31.33 35.66 31.66 36 32 C36.99 31.34 37.98 30.68 39 30 C38.34 30 37.68 30 37 30 C36.566875 28.9275 36.13375 27.855 35.6875 26.75 C34.44678487 23.83727354 33.04929621 21.43963834 31 19 C31.33 18.34 31.66 17.68 32 17 C32.67804688 17.78503906 33.35609375 18.57007813 34.0546875 19.37890625 C45.23741838 32.10128848 56.25856695 38.70660333 73 42 C73 42.33 73 42.66 73 43 C71.083412 43.02712153 69.1667127 43.04645097 67.25 43.0625 C65.64898437 43.07990234 65.64898437 43.07990234 64.015625 43.09765625 C61.46631499 43.01510087 59.42066409 42.74617558 57 42 C57 41.34 57 40.68 57 40 C55.35 40 53.7 40 52 40 C52 39.34 52 38.68 52 38 C51.071875 38.309375 50.14375 38.61875 49.1875 38.9375 C47.125 39.625 45.0625 40.3125 43 41 C47.62405298 46.52630722 52.55735584 51.69566138 57.625 56.8125 C58.27025635 57.47064697 58.9155127 58.12879395 59.58032227 58.80688477 C62.84241606 62.07569846 65.84977974 64.86128496 70 67 C69.01 67.495 69.01 67.495 68 68 C63.83407638 65.36574718 60.39526074 62.64074525 56.90014648 59.12719727 C56.42937683 58.65671967 55.95860718 58.18624207 55.47357178 57.70150757 C53.93461727 56.16117166 52.4028542 54.61389345 50.87109375 53.06640625 C49.79349529 51.98507051 48.71544912 50.90418075 47.63697815 49.82371521 C44.80850117 46.98763381 41.98607668 44.1456039 39.16491699 41.30224609 C36.30170841 38.41860192 33.43286265 35.5405785 30.56445312 32.66210938 C25.51217145 27.59073554 20.46484848 22.51447283 15.42112732 17.43458557 C14.6221553 16.63117233 13.82318329 15.82775909 13 15 C12.11341202 14.1060704 11.22682404 13.21214081 10.31336975 12.29112244 C7.82728647 9.82894743 5.20146152 7.68419046 2.453125 5.52734375 C0.74733664 3.73443179 0.39430249 2.41250866 0 0 Z " fill="#0636F2" transform="translate(32,128)"/>
<path d="M0 0 C0 0.66 0 1.32 0 2 C-1.10794922 2.4021875 -1.10794922 2.4021875 -2.23828125 2.8125 C-18.07132109 8.92843915 -28.44691065 18.56845013 -35.74609375 33.8828125 C-37.7222503 38.79550076 -38.95263306 43.81828988 -40 49 C-40.33 49 -40.66 49 -41 49 C-41.05410687 47.22950311 -41.09284119 45.45853151 -41.125 43.6875 C-41.14820312 42.70136719 -41.17140625 41.71523437 -41.1953125 40.69921875 C-41 38 -41 38 -39 35 C-38.32878301 32.5633162 -38.32878301 32.5633162 -37.875 29.9375 C-37.70742188 29.05964844 -37.53984375 28.18179688 -37.3671875 27.27734375 C-36.94694027 25.05537602 -36.94694027 25.05537602 -37 23 C-37.66 23 -38.32 23 -39 23 C-39 22.34 -39 21.68 -39 21 C-38.34 21 -37.68 21 -37 21 C-37 20.34 -37 19.68 -37 19 C-37.99 19.33 -38.98 19.66 -40 20 C-40.13535156 20.60328125 -40.27070312 21.2065625 -40.41015625 21.828125 C-41.24506322 24.90235198 -42.92087544 25.86555153 -45.4375 27.75 C-46.64212891 28.67039062 -46.64212891 28.67039062 -47.87109375 29.609375 C-50 31 -50 31 -52 31 C-52.04125 31.61875 -52.0825 32.2375 -52.125 32.875 C-52.558125 33.926875 -52.558125 33.926875 -53 35 C-56.0625 36.25 -56.0625 36.25 -59 37 C-54.88670129 32.09526099 -50.61457539 27.4780472 -46.0703125 22.97265625 C-45.43511688 22.33887558 -44.79992126 21.70509491 -44.14547729 21.05210876 C-42.14101284 19.05318594 -40.13307786 17.05779216 -38.125 15.0625 C-36.75497611 13.69749867 -35.38518226 12.3322664 -34.015625 10.96679688 C-30.67973457 7.64185789 -27.34072964 4.32007647 -24 1 C-24 8 -24 8 -25 11 C-27.06640625 11.73046875 -27.06640625 11.73046875 -29.5625 12.1875 C-30.38878906 12.34605469 -31.21507813 12.50460938 -32.06640625 12.66796875 C-32.70449219 12.77753906 -33.34257813 12.88710937 -34 13 C-33.67 13.99 -33.34 14.98 -33 16 C-34.4375 19.1875 -34.4375 19.1875 -36 22 C-35.608125 21.54625 -35.21625 21.0925 -34.8125 20.625 C-33 19 -33 19 -30.5625 18.125 C-27.3310974 16.70633544 -26.15182682 14.75702812 -24 12 C-21.8125 10.5625 -21.8125 10.5625 -19 9 C-17.53767822 8.0058415 -16.07973644 7.00522535 -14.625 6 C-10.05963735 2.94120702 -5.64527358 0 0 0 Z " fill="#082FD2" transform="translate(95,55)"/>
<path d="M0 0 C7.618304 7.618304 8.93326654 18.67480092 9.3125 29.0625 C9.13055654 37.14598812 6.38746081 44.7411554 3 52 C1.84541287 48.5362386 2.16613083 48.11840403 3.4375 44.875 C5.87390621 37.43288649 5.24213868 29.73050152 5 22 C4.34 22.66 3.68 23.32 3 24 C2.34 23.67 1.68 23.34 1 23 C1.11859375 24.10859375 1.2371875 25.2171875 1.359375 26.359375 C1.49070945 27.82281604 1.62085565 29.28636406 1.75 30.75 C1.83121094 31.47960937 1.91242188 32.20921875 1.99609375 32.9609375 C2.30232798 36.70380027 2.38715432 38.50919806 0.015625 41.515625 C-0.64953125 42.00546875 -1.3146875 42.4953125 -2 43 C-5 42 -5 42 -7 39 C-7.14245897 36.23344676 -7.18769445 33.57346694 -7.125 30.8125 C-7.11597656 30.06291016 -7.10695312 29.31332031 -7.09765625 28.54101562 C-7.07412578 26.69387346 -7.03825561 24.84689588 -7 23 C-6.67 23 -6.34 23 -6 23 C-6 27.95 -6 32.9 -6 38 C-4.35 38 -2.7 38 -1 38 C-1.11386459 35.22829605 -1.24060778 32.45821954 -1.375 29.6875 C-1.4059375 28.90181641 -1.436875 28.11613281 -1.46875 27.30664062 C-1.50742188 26.54931641 -1.54609375 25.79199219 -1.5859375 25.01171875 C-1.6173584 24.31522217 -1.6487793 23.61872559 -1.68115234 22.90112305 C-1.92118253 20.67467261 -1.92118253 20.67467261 -4 18 C-6.32817964 17.63239269 -8.6618385 17.29758419 -11 17 C-11.33 16.34 -11.66 15.68 -12 15 C-8.33333333 15 -4.66666667 15 -1 15 C-0.87625 14.360625 -0.7525 13.72125 -0.625 13.0625 C-0.41875 12.381875 -0.2125 11.70125 0 11 C0.66 10.67 1.32 10.34 2 10 C1.34 6.7 0.68 3.4 0 0 Z " fill="#0433EE" transform="translate(156,85)"/>
<path d="M0 0 C0.67546875 0.3196875 1.3509375 0.639375 2.046875 0.96875 C6.62181551 2.56634827 11.20631231 2.45669346 16.015625 2.65625 C17.00046875 2.7696875 17.9853125 2.883125 19 3 C19.33 3.66 19.66 4.32 20 5 C20.66 4.67 21.32 4.34 22 4 C22 3.67 22 3.34 22 3 C22.68707031 2.93941406 23.37414062 2.87882812 24.08203125 2.81640625 C24.98308594 2.73261719 25.88414063 2.64882812 26.8125 2.5625 C27.70582031 2.48128906 28.59914062 2.40007812 29.51953125 2.31640625 C32.12743559 2.06510233 32.12743559 2.06510233 35 1 C35.495 2.98 35.495 2.98 36 5 C34.783125 4.95875 33.56625 4.9175 32.3125 4.875 C28.00223718 4.88261531 24.84399017 5.55338301 21.38671875 8.265625 C19.5437914 10.57058203 19.59862607 12.01438915 19.625 14.9375 C19.61726563 15.79214844 19.60953125 16.64679688 19.6015625 17.52734375 C20.07794774 20.48373449 20.94591555 21.84465787 23 24 C25.79748841 24.93249614 27.54320881 25.13476152 30.4375 25.125 C31.19933594 25.12757812 31.96117187 25.13015625 32.74609375 25.1328125 C34.95315859 25.00276015 36.87969276 24.60856199 39 24 C38.67 24.66 38.34 25.32 38 26 C37.34 26 36.68 26 36 26 C36 26.66 36 27.32 36 28 C32.04 28 28.08 28 24 28 C24 27.34 24 26.68 24 26 C22.35 25.34 20.7 24.68 19 24 C19 23.01 19 22.02 19 21 C18.34 21 17.68 21 17 21 C17 22.98 17 24.96 17 27 C14.3125 28.25 14.3125 28.25 11 29 C8.125 27.125 8.125 27.125 6 25 C7.75 24.375 7.75 24.375 10 24 C11.32 24.66 12.64 25.32 14 26 C13.67 19.07 13.34 12.14 13 5 C11.68 4.67 10.36 4.34 9 4 C9 4.66 9 5.32 9 6 C8.00419922 5.85691406 8.00419922 5.85691406 6.98828125 5.7109375 C0.28354475 4.79684678 0.28354475 4.79684678 -6 7 C-5.67 6.01 -5.34 5.02 -5 4 C-2.4375 2.8125 -2.4375 2.8125 0 2 C0 1.34 0 0.68 0 0 Z " fill="#0530E9" transform="translate(78,97)"/>
<path d="M0 0 C0 3 0 3 -2.25 5.4375 C-3.87916582 6.95558633 -5.52052214 8.46103389 -7.1875 9.9375 C-9.22469754 11.95873434 -9.22469754 11.95873434 -9.875 15.0625 C-11 18 -11 18 -14.125 19.875 C-15.548125 20.431875 -15.548125 20.431875 -17 21 C-16.34 21.33 -15.68 21.66 -15 22 C-15 23.32 -15 24.64 -15 26 C-13.68 26.66 -12.36 27.32 -11 28 C-11.55429688 28.33773437 -12.10859375 28.67546875 -12.6796875 29.0234375 C-13.40414062 29.46945313 -14.12859375 29.91546875 -14.875 30.375 C-15.59429687 30.81585938 -16.31359375 31.25671875 -17.0546875 31.7109375 C-19.11793582 32.9853713 -19.11793582 32.9853713 -21 35 C-21.99 35 -22.98 35 -24 35 C-24.2475 35.61875 -24.495 36.2375 -24.75 36.875 C-26.22246063 39.37818306 -27.41028837 39.83045281 -30 41 C-30.33 41.66 -30.66 42.32 -31 43 C-31.66 42.67 -32.32 42.34 -33 42 C-33.33 42.99 -33.66 43.98 -34 45 C-34.66 45 -35.32 45 -36 45 C-35.57346193 41.90600741 -35.05072886 38.94742916 -34 36 C-30.74589785 33.85914332 -28.94862891 34 -25 34 C-25.28875 33.175 -25.5775 32.35 -25.875 31.5 C-26.06052754 26.30522889 -23.37788521 23.73004771 -20 20 C-18.34646183 18.32030745 -16.67724836 16.65601736 -15 15 C-13.74272484 13.74425479 -12.48627644 12.4876815 -11.23046875 11.23046875 C-5.61523438 5.61523438 -5.61523438 5.61523438 0 0 Z " fill="#0536F2" transform="translate(95,32)"/>
<path d="M0 0 C0.33 0 0.66 0 1 0 C1.25523438 0.96099609 1.25523438 0.96099609 1.515625 1.94140625 C3.08593059 7.54606078 4.99999262 12.03123777 8 17 C8.54049843 18.22064717 9.06173997 19.45001972 9.5625 20.6875 C10.81570736 23.94588361 10.81570736 23.94588361 12.6875 26.1875 C14 28 14 28 14 32 C14.99 31.67 15.98 31.34 17 31 C16.67 31.99 16.34 32.98 16 34 C13.9375 34.6875 13.9375 34.6875 12 35 C11.67 34.34 11.34 33.68 11 33 C10.01 33 9.02 33 8 33 C6.37426758 31.71484375 6.37426758 31.71484375 4.64453125 29.9375 C4.02255859 29.30585938 3.40058594 28.67421875 2.75976562 28.0234375 C2.11716797 27.35570312 1.47457031 26.68796875 0.8125 26 C0.15830078 25.33226562 -0.49589844 24.66453125 -1.16992188 23.9765625 C-2.78686135 22.32421559 -4.39640491 20.66528399 -6 19 C-3.50935112 18.31292445 -1.62113708 18 1 18 C1.66 17.34 2.32 16.68 3 16 C2.48538647 12.47122152 0.91236399 9.26206588 -0.4765625 6 C-1.09330968 3.64347347 -0.76428309 2.28265884 0 0 Z " fill="#0633EA" transform="translate(55,126)"/>
<path d="M0 0 C0.99 0.495 0.99 0.495 2 1 C-7.02131747 13.53121912 -19.05231842 24.14819829 -34.8046875 26.79296875 C-46.79126342 27.92337538 -58.24652429 26.59397979 -69 21 C-65.66041268 19.86408595 -63.83461753 20.13874069 -60.5625 21.375 C-51.94402206 24.58257266 -43.58244293 24.3085104 -34.5 23.75 C-33.7059375 23.70359375 -32.911875 23.6571875 -32.09375 23.609375 C-29.31181855 22.79970839 -28.60519757 21.333136 -27 19 C-26.34 19 -25.68 19 -25 19 C-25 17.68 -25 16.36 -25 15 C-21.25 13.875 -21.25 13.875 -19 15 C-16.6670134 15.04022391 -14.33293334 15.04320247 -12 15 C-12 14.34 -12 13.68 -12 13 C-10.02819395 11.17641627 -7.94381973 9.52997206 -5.84765625 7.8515625 C-3.80638093 5.80597158 -3.62372431 4.73090103 -3 2 C-2.01 1.34 -1.02 0.68 0 0 Z " fill="#0B29BA" transform="translate(156,138)"/>
<path d="M0 0 C8.37298584 6.78391872 15.85208161 14.72095839 23.4453125 22.34765625 C24.7087538 23.61296731 25.97241953 24.8780543 27.23629761 26.14292908 C30.52965711 29.44006981 33.82000002 32.7402044 37.10968018 36.04101562 C40.48012396 39.42176907 43.85347232 42.79962169 47.2265625 46.17773438 C53.82052149 52.78235298 60.41129079 59.39014454 67 66 C66.67 66.66 66.34 67.32 66 68 C41.13793945 43.13793945 41.13793945 43.13793945 39.5059967 41.50558472 C38.18239241 40.18234251 36.85741854 38.86047055 35.53222656 37.53881836 C32.94731686 34.94717972 30.37739178 32.34137885 27.80967712 29.73272705 C25.07789272 26.96075512 22.33809382 24.19676213 19.59790039 21.43310547 C18.15316468 19.97318607 16.71111911 18.51059978 15.27172852 17.04541016 C13.18686861 14.92424022 11.09253702 12.81283939 8.99609375 10.703125 C8.35433701 10.0458844 7.71258026 9.3886438 7.05137634 8.71148682 C6.44717361 8.1070575 5.84297089 7.50262817 5.22045898 6.87988281 C4.69371078 6.34647278 4.16696259 5.81306274 3.62425232 5.26348877 C1.77446049 3.82455519 0.28830238 3.40710782 -2 3 C-2 2.34 -2 1.68 -2 1 C-4.31 0.67 -6.62 0.34 -9 0 C-9 -0.66 -9 -1.32 -9 -2 C-15.1377404 -1.6103022 -19.59099592 -0.58174047 -25.0546875 2.2578125 C-27 3 -27 3 -30 2 C-20.67182054 -3.56103006 -9.95572081 -5.77423797 0 0 Z " fill="#0927A4" transform="translate(126,29)"/>
<path d="M0 0 C0.33 0 0.66 0 1 0 C1.47563898 5.28039884 -0.02366393 8.64827972 -2.6875 13.0625 C-3.19700195 13.9606543 -3.19700195 13.9606543 -3.71679688 14.87695312 C-6.03399721 18.83135295 -8.67445755 21.81062149 -12 25 C-12.65226562 25.85335937 -13.30453125 26.70671875 -13.9765625 27.5859375 C-18.66713416 33.18202492 -26.29590367 37.15075906 -33 40 C-33.99 40 -34.98 40 -36 40 C-36 40.66 -36 41.32 -36 42 C-37.134375 42.144375 -38.26875 42.28875 -39.4375 42.4375 C-42.80777201 42.61171478 -42.80777201 42.61171478 -44 44 C-45.34267413 44.08631874 -46.68974322 44.10706473 -48.03515625 44.09765625 C-48.84404297 44.09443359 -49.65292969 44.09121094 -50.48632812 44.08789062 C-51.33646484 44.07951172 -52.18660156 44.07113281 -53.0625 44.0625 C-53.91650391 44.05798828 -54.77050781 44.05347656 -55.65039062 44.04882812 C-57.76695663 44.03700373 -59.88348685 44.01906769 -62 44 C-62 43.34 -62 42.68 -62 42 C-61.15179688 41.97421875 -60.30359375 41.9484375 -59.4296875 41.921875 C-51.336877 41.53057427 -44.58540271 40.29727991 -36.86328125 37.83984375 C-34 37 -34 37 -31 37 C-30.67 36.34 -30.34 35.68 -30 35 C-28.906875 34.525625 -27.81375 34.05125 -26.6875 33.5625 C-14.04056559 27.36391276 -5.41315721 15.63391147 -0.7890625 2.58203125 C-0.52867187 1.72996094 -0.26828125 0.87789062 0 0 Z " fill="#0927B2" transform="translate(168,129)"/>
<path d="M0 0 C1.423125 0.495 1.423125 0.495 2.875 1 C5.77062452 2.10159191 5.77062452 2.10159191 8 2 C8.103125 2.598125 8.20625 3.19625 8.3125 3.8125 C9.12561141 6.39967266 10.02264246 7.16388228 12 9 C15.99507892 13.28740177 17.55299398 16.21197594 19 22 C19.66 22.66 20.32 23.32 21 24 C22.52018696 27.80046739 23.24061997 30.90946058 23 35 C23.66 35.33 24.32 35.66 25 36 C25.05455703 38.97941998 25.09393851 41.95781531 25.125 44.9375 C25.14175781 45.76830078 25.15851563 46.59910156 25.17578125 47.45507812 C25.22107288 53.27505267 24.4456695 58.3596123 23 64 C22.34 64 21.68 64 21 64 C21.0721875 63.35675781 21.144375 62.71351562 21.21875 62.05078125 C22.79882833 46.66696306 22.57287202 32.84007645 15 19 C15 18.34 15 17.68 15 17 C14.34 17 13.68 17 13 17 C11.9921875 15.53125 11.9921875 15.53125 10.875 13.5 C8.32491884 9.20391732 5.19209468 5.98366059 1.57421875 2.56640625 C1.05472656 2.04949219 0.53523437 1.53257813 0 1 C0 0.67 0 0.34 0 0 Z " fill="#0728C5" transform="translate(148,65)"/>
<path d="M0 0 C3 1.0625 3 1.0625 5 2 C2.70031945 3.4216207 1.50354023 4.07092116 -1.21875 3.6875 C-2.73958333 3.22916667 -4.26041667 2.77083333 -5.78125 2.3125 C-8.04057898 1.77063824 -8.04057898 1.77063824 -9.96875 3.0625 C-10.6390625 3.371875 -11.309375 3.68125 -12 4 C-13.65 3.34 -15.3 2.68 -17 2 C-17 8.93 -17 15.86 -17 23 C-15.35 23 -13.7 23 -12 23 C-12 23.66 -12 24.32 -12 25 C-13.98 24.67 -15.96 24.34 -18 24 C-18.07347656 22.30230469 -18.07347656 22.30230469 -18.1484375 20.5703125 C-18.22346514 19.08851661 -18.29901297 17.606747 -18.375 16.125 C-18.4059375 15.37863281 -18.436875 14.63226563 -18.46875 13.86328125 C-18.55643831 9.46526812 -18.55643831 9.46526812 -21 6 C-21.350625 6.515625 -21.70125 7.03125 -22.0625 7.5625 C-25.01333232 9.7518272 -27.48328907 8.50238728 -31 8 C-33.12870693 8.96117905 -33.12870693 8.96117905 -34 11 C-33.76956136 13.65466049 -33.76956136 13.65466049 -33 16 C-29.32589215 17.17571451 -25.83070817 17.07366746 -22 17 C-22.33 17.99 -22.66 18.98 -23 20 C-23.53625 19.835 -24.0725 19.67 -24.625 19.5 C-27.08958896 18.85452771 -27.08958896 18.85452771 -30 19.3125 C-33 19 -33 19 -35.5 16.3125 C-37 13 -37 13 -36.375 10.25 C-35 8 -35 8 -33 6 C-30.33333333 6 -27.66666667 6 -25 6 C-24.34 5.34 -23.68 4.68 -23 4 C-23.33 3.34 -23.66 2.68 -24 2 C-22.02 2 -20.04 2 -18 2 C-18 1.34 -18 0.68 -18 0 C-15.98177083 0.03255208 -13.96354167 0.06510417 -11.9453125 0.09765625 C-2.07952286 -0.39761431 -2.07952286 -0.39761431 0 0 Z " fill="#0928AE" transform="translate(138,100)"/>
<path d="M0 0 C3.09217968 1.34848752 4.86295654 2.73488705 6.97998047 5.34448242 C12.0945831 11.37954403 17.73262026 16.89701482 23.3203125 22.48828125 C24.50909433 23.6802827 25.69780358 24.87235654 26.88644409 26.0644989 C29.36409913 28.54810647 31.84377623 31.02967464 34.32470703 33.51000977 C37.49829098 36.6834916 40.66490833 39.86382943 43.82985115 43.04592609 C46.27656285 45.50376155 48.72781137 47.9570333 51.18035507 50.40904808 C52.35011452 51.57998444 53.51826007 52.75253547 54.68472672 53.92675209 C56.31390531 55.56575049 57.94932488 57.19826555 59.58642578 58.8293457 C60.51351349 59.75785843 61.4406012 60.68637115 62.39578247 61.64302063 C64.81660674 63.83401765 67.14092731 65.44347986 70 67 C69.01 67.495 69.01 67.495 68 68 C63.83407638 65.36574718 60.39526074 62.64074525 56.90014648 59.12719727 C56.42937683 58.65671967 55.95860718 58.18624207 55.47357178 57.70150757 C53.93461727 56.16117166 52.4028542 54.61389345 50.87109375 53.06640625 C49.79349529 51.98507051 48.71544912 50.90418075 47.63697815 49.82371521 C44.80850117 46.98763381 41.98607668 44.1456039 39.16491699 41.30224609 C36.30170841 38.41860192 33.43286265 35.5405785 30.56445312 32.66210938 C25.51217145 27.59073554 20.46484848 22.51447283 15.42112732 17.43458557 C14.6221553 16.63117233 13.82318329 15.82775909 13 15 C12.11341202 14.1060704 11.22682404 13.21214081 10.31336975 12.29112244 C7.82728647 9.82894743 5.20146152 7.68419046 2.453125 5.52734375 C0.74733664 3.73443179 0.39430249 2.41250866 0 0 Z " fill="#0B25A6" transform="translate(32,128)"/>
<path d="M0 0 C0 0.99 0 1.98 0 3 C-0.66 3 -1.32 3 -2 3 C-2.2371875 3.56203125 -2.474375 4.1240625 -2.71875 4.703125 C-4.28947697 7.51894042 -6.21471464 9.47955416 -8.5 11.75 C-9.2940625 12.54921875 -10.088125 13.3484375 -10.90625 14.171875 C-13 16 -13 16 -15 16 C-15.38671875 16.87398437 -15.38671875 16.87398437 -15.78125 17.765625 C-17.09834017 20.1802903 -18.55088384 21.81740177 -20.5 23.75 C-21.1084375 24.36359375 -21.716875 24.9771875 -22.34375 25.609375 C-24 27 -24 27 -26 27 C-26.268125 27.639375 -26.53625 28.27875 -26.8125 28.9375 C-28 31 -28 31 -31 32 C-31 31.34 -31 30.68 -31 30 C-30.34 30 -29.68 30 -29 30 C-28.67 28.68 -28.34 27.36 -28 26 C-27.01 26 -26.02 26 -25 26 C-23.87119943 22.68885166 -22.78697325 19.41021743 -22 16 C-24.99332739 16.9977758 -25.94766315 17.7522025 -28 20 C-27.59316505 17.64035727 -27.10185661 16.14065912 -25.6875 14.1875 C-25.130625 13.795625 -24.57375 13.40375 -24 13 C-22.0625 13.375 -22.0625 13.375 -20 14 C-16.48447333 13.54638366 -13.99408087 11.81220684 -11 10 C-10.34 10 -9.68 10 -9 10 C-9 9.34 -9 8.68 -9 8 C-8.34 8 -7.68 8 -7 8 C-6.6596875 7.13375 -6.6596875 7.13375 -6.3125 6.25 C-4.66961977 3.4336339 -2.60466773 1.91922886 0 0 Z " fill="#0634EE" transform="translate(181,139)"/>
<path d="M0 0 C4.05445642 -0.43132515 5.54970958 -0.30019361 9 2 C9.875 4.3125 9.875 4.3125 10 7 C8.8584081 9.2831838 7.80987317 11.19012683 6 13 C2.5625 12.75 2.5625 12.75 -1 12 C-3 9 -3 9 -2.75 6 C-2 3 -2 3 0 0 Z " fill="#0938F4" transform="translate(77,106)"/>
<path d="M0 0 C0 0.33 0 0.66 0 1 C-1.59521484 0.76023437 -1.59521484 0.76023437 -3.22265625 0.515625 C-8.95232715 -0.19538367 -14.67048213 -0.22258696 -20.4375 -0.25 C-21.51837891 -0.270625 -22.59925781 -0.29125 -23.71289062 -0.3125 C-32.15779013 -0.3534698 -39.383646 0.73510473 -46.375 5.75 C-48.2734375 7.109375 -48.2734375 7.109375 -50 8 C-50.99 7.67 -51.98 7.34 -53 7 C-38.36975575 -6.60192037 -17.68984348 -6.89134772 0 0 Z " fill="#082CBE" transform="translate(133,64)"/>
<path d="M0 0 C5.04131478 4.81216411 6.00797549 8.97695489 6.3125 15.75 C6.19429964 24.58876053 1.97580109 30.80508621 -4 37 C-4.66 36.67 -5.32 36.34 -6 36 C-5.0409375 34.9790625 -5.0409375 34.9790625 -4.0625 33.9375 C-1.65721342 30.51178881 -1.45625029 28.1062526 -1 24 C0.05769716 22.41345425 1.11683433 20.82782309 2.1875 19.25 C3.35835102 16.00764334 2.54906348 13.35538794 2 10 C2.33 9.01 2.66 8.02 3 7 C2.01 6.67 1.02 6.34 0 6 C0 4.02 0 2.04 0 0 Z " fill="#0535EB" transform="translate(193,97)"/>
<path d="M0 0 C0.66 0 1.32 0 2 0 C0.55922954 3.36179774 -1.24750021 5.59156268 -4 8 C-4.66 8 -5.32 8 -6 8 C-6.33 8.99 -6.66 9.98 -7 11 C-7.66 11 -8.32 11 -9 11 C-9.268125 11.639375 -9.53625 12.27875 -9.8125 12.9375 C-11 15 -11 15 -14 16 C-14.433125 16.8971875 -14.433125 16.8971875 -14.875 17.8125 C-17.55105947 23.01594896 -22.7563967 25.03364876 -28 27 C-34.29639299 28.73150807 -39.93131832 28.36826602 -46 26 C-46 25.67 -46 25.34 -46 25 C-44.92621094 25.03480469 -43.85242188 25.06960937 -42.74609375 25.10546875 C-41.30991161 25.13362918 -39.87371238 25.16092691 -38.4375 25.1875 C-37.38079102 25.22520508 -37.38079102 25.22520508 -36.30273438 25.26367188 C-31.09202389 25.33570935 -27.680506 24.27874447 -23 22 C-22.21625 21.835 -21.4325 21.67 -20.625 21.5 C-19.820625 21.2525 -19.820625 21.2525 -19 21 C-18.67 20.01 -18.34 19.02 -18 18 C-17.34 17.67 -16.68 17.34 -16 17 C-15.67 16.01 -15.34 15.02 -15 14 C-14.01 14 -13.02 14 -12 14 C-12 13.34 -12 12.68 -12 12 C-11.34 12 -10.68 12 -10 12 C-10 11.34 -10 10.68 -10 10 C-9.34 10 -8.68 10 -8 10 C-7.9071875 9.13375 -7.9071875 9.13375 -7.8125 8.25 C-6.66615826 5.07551517 -4.74043158 3.87151425 -2 2 C-1.34 2 -0.68 2 0 2 C0 1.34 0 0.68 0 0 Z " fill="#092AB3" transform="translate(148,171)"/>
<path d="M0 0 C-0.33 0.66 -0.66 1.32 -1 2 C-2.32 2 -3.64 2 -5 2 C-6.28446919 4.56893838 -6.32977144 6.76576337 -6.5625 9.625 C-6.64628906 10.62789062 -6.73007813 11.63078125 -6.81640625 12.6640625 C-6.87699219 13.43492188 -6.93757812 14.20578125 -7 15 C-5.68 15.33 -4.36 15.66 -3 16 C-4 19 -4 19 -5.625 19.8125 C-8 20 -8 20 -15 18 C-15.33 12.39 -15.66 6.78 -16 1 C-17.65 1 -19.3 1 -21 1 C-21 0.67 -21 0.34 -21 0 C-18.125 -0.1875 -18.125 -0.1875 -15 0 C-12.50881047 3.7367843 -12.7934774 5.74451819 -12.875 10.1875 C-12.89304688 11.45980469 -12.91109375 12.73210937 -12.9296875 14.04296875 C-12.96449219 15.50669922 -12.96449219 15.50669922 -13 17 C-11.68 17 -10.36 17 -9 17 C-9.02320313 16.19175781 -9.04640625 15.38351563 -9.0703125 14.55078125 C-9.08835938 13.48214844 -9.10640625 12.41351563 -9.125 11.3125 C-9.14820313 10.25675781 -9.17140625 9.20101562 -9.1953125 8.11328125 C-8.99653524 4.94477177 -8.44874543 2.81137662 -7 0 C-4.3333581 -1.33332095 -2.83319697 -0.67102033 0 0 Z " fill="#072AC5" transform="translate(149,106)"/>
<path d="M0 0 C5.27315333 0.4452885 10.01770224 1.08373163 15 3 C15 2.34 15 1.68 15 1 C15.99 1.33 16.98 1.66 18 2 C18 2.99 18 3.98 18 5 C21.16666667 3.16666667 21.16666667 3.16666667 23 0 C26.21043882 1.38188453 28.04936365 2.92421903 30.25 5.625 C30.77078125 6.25664063 31.2915625 6.88828125 31.828125 7.5390625 C32.40820312 8.26222656 32.40820312 8.26222656 33 9 C32.34 9.33 31.68 9.66 31 10 C29.68 8.35 28.36 6.7 27 5 C26.34 5.66 25.68 6.32 25 7 C24.01 7 23.02 7 22 7 C22 7.99 22 8.98 22 10 C18.58562009 8.68771164 15.36375391 7.19698288 12.125 5.5 C8.1171577 3.46608003 4.36384313 2.0435277 0 1 C0 0.67 0 0.34 0 0 Z " fill="#0636F2" transform="translate(126,55)"/>
<path d="M0 0 C0.33 0.99 0.66 1.98 1 3 C0.443125 3.680625 -0.11375 4.36125 -0.6875 5.0625 C-8.0153055 14.37079347 -10.26584615 28.39641034 -9 40 C-8.42235232 42.29872125 -7.70049067 44.46542008 -6.8671875 46.68359375 C-5.89491211 49.28070775 -5.09793391 51.90324521 -4.3125 54.5625 C-4.06113281 55.40941406 -3.80976562 56.25632813 -3.55078125 57.12890625 C-3.36902344 57.74636719 -3.18726562 58.36382812 -3 59 C-8.36223307 54.48691821 -10.40649377 46.54686127 -11.28808594 39.79296875 C-12.44909198 24.60149984 -8.88158435 12.44918706 0 0 Z " fill="#0B29AF" transform="translate(71,80)"/>
<path d="M0 0 C0.66 0 1.32 0 2 0 C2.66 1.32 3.32 2.64 4 4 C3.09522263 5.46573934 2.17565859 6.92235756 1.25 8.375 C0.73953125 9.18710938 0.2290625 9.99921875 -0.296875 10.8359375 C-2.08852076 13.11247822 -3.40713122 13.83429849 -6 15 C-6.33 15.66 -6.66 16.32 -7 17 C-7.66 16.67 -8.32 16.34 -9 16 C-9.33 16.99 -9.66 17.98 -10 19 C-10.66 19 -11.32 19 -12 19 C-11.57346193 15.90600741 -11.05072886 12.94742916 -10 10 C-6.74589785 7.85914332 -4.94862891 8 -1 8 C-1.20625 7.05125 -1.4125 6.1025 -1.625 5.125 C-1.74875 4.09375 -1.8725 3.0625 -2 2 C-1.34 1.34 -0.68 0.68 0 0 Z " fill="#0737F9" transform="translate(71,58)"/>
<path d="M0 0 C0.66 0.33 1.32 0.66 2 1 C-4.05477306 9.41048862 -11.50902027 19.18345823 -22.1875 21.125 C-23.08855469 21.29257813 -23.98960937 21.46015625 -24.91796875 21.6328125 C-25.60503906 21.75398438 -26.29210937 21.87515625 -27 22 C-27 21.01 -27 20.02 -27 19 C-26.34 19 -25.68 19 -25 19 C-25 17.68 -25 16.36 -25 15 C-21.25 13.875 -21.25 13.875 -19 15 C-16.6670134 15.04022391 -14.33293334 15.04320247 -12 15 C-12 14.34 -12 13.68 -12 13 C-10.02819395 11.17641627 -7.94381973 9.52997206 -5.84765625 7.8515625 C-3.80638093 5.80597158 -3.62372431 4.73090103 -3 2 C-2.01 1.34 -1.02 0.68 0 0 Z " fill="#0635EE" transform="translate(156,138)"/>
<path d="M0 0 C0.70125 0.45890625 1.4025 0.9178125 2.125 1.390625 C12.1506737 7.87462049 20.21692693 11.62901579 32 14 C32 14.33 32 14.66 32 15 C30.083412 15.02712153 28.1667127 15.04645097 26.25 15.0625 C24.64898437 15.07990234 24.64898437 15.07990234 23.015625 15.09765625 C20.46631499 15.01510087 18.42066409 14.74617558 16 14 C16 13.34 16 12.68 16 12 C14.35 12 12.7 12 11 12 C11 11.01 11 10.02 11 9 C10.37351562 8.90203125 9.74703125 8.8040625 9.1015625 8.703125 C8.28429687 8.55359375 7.46703125 8.4040625 6.625 8.25 C5.81289062 8.11078125 5.00078125 7.9715625 4.1640625 7.828125 C2 7 2 7 0.7109375 5.109375 C0 3 0 3 0 0 Z " fill="#072DC4" transform="translate(73,156)"/>
<path d="M0 0 C0 0.66 0 1.32 0 2 C1.134375 1.814375 2.26875 1.62875 3.4375 1.4375 C5.2009375 1.2209375 5.2009375 1.2209375 7 1 C8 2 8 2 8.09765625 4.50390625 C8.08605469 5.51324219 8.07445313 6.52257812 8.0625 7.5625 C8.05347656 8.57441406 8.04445313 9.58632812 8.03515625 10.62890625 C8.02355469 11.41136719 8.01195313 12.19382812 8 13 C7.566875 12.360625 7.13375 11.72125 6.6875 11.0625 C5.08760823 8.73253997 5.08760823 8.73253997 2 8 C2 7.34 2 6.68 2 6 C1.01 6 0.02 6 -1 6 C-1 5.34 -1 4.68 -1 4 C-2.65 4.66 -4.3 5.32 -6 6 C-6 4.35 -6 2.7 -6 1 C-4 0 -4 0 0 0 Z M1 3 C2 5 2 5 2 5 Z " fill="#0838F7" transform="translate(111,109)"/>
<path d="M0 0 C0.66 0.33 1.32 0.66 2 1 C2.27616405 3.7496334 2.52164742 6.49633658 2.75 9.25 C2.83121094 10.02730469 2.91242188 10.80460937 2.99609375 11.60546875 C3.44413244 17.42997175 3.44413244 17.42997175 1.015625 20.546875 C0.35046875 21.02640625 -0.3146875 21.5059375 -1 22 C-4 21 -4 21 -6 18 C-6.14245897 15.23344676 -6.18769445 12.57346694 -6.125 9.8125 C-6.11597656 9.06291016 -6.10695312 8.31332031 -6.09765625 7.54101562 C-6.07412578 5.69387346 -6.03825561 3.84689588 -6 2 C-5.67 2 -5.34 2 -5 2 C-5 6.95 -5 11.9 -5 17 C-3.35 17 -1.7 17 0 17 C0 11.39 0 5.78 0 0 Z " fill="#082ABE" transform="translate(155,106)"/>
<path d="M0 0 C0 4.36020457 -2.36867707 7.01794211 -4.6875 10.625 C-7.29975183 17.34221899 -6.68098528 24.37638931 -4 31 C-3.63893903 32.66088045 -3.29537827 34.32618981 -3 36 C-3.66 36 -4.32 36 -5 36 C-8.61162068 28.7122654 -10.25200189 22.13266185 -9 14 C-7.10716024 8.55340969 -4.53306867 3.69361151 0 0 Z " fill="#0F2AAF" transform="translate(35,92)"/>
<path d="M0 0 C0 0.66 0 1.32 0 2 C-1.10794922 2.4021875 -1.10794922 2.4021875 -2.23828125 2.8125 C-13.61508625 7.20709812 -22.48386466 13.35472052 -30 23 C-30.33 22.34 -30.66 21.68 -31 21 C-29.76448756 17.29346269 -28.03334922 16.35084565 -25 14 C-24.67 13.34 -24.34 12.68 -24 12 C-22.35178756 10.96986723 -20.67888441 9.97934924 -19 9 C-17.53890118 8.004045 -16.08081267 7.00366607 -14.625 6 C-10.05963735 2.94120702 -5.64527358 0 0 0 Z " fill="#0623AE" transform="translate(95,55)"/>
<path d="M0 0 C0 3 0 3 -2.25 5.4375 C-3.87916582 6.95558633 -5.52052214 8.46103389 -7.1875 9.9375 C-9.22762931 11.932114 -9.22762931 11.932114 -9.6875 14.9375 C-11.6645854 19.55069926 -15.45578196 21.16935245 -20 23 C-20.99 23 -21.98 23 -23 23 C-19.33364488 18.50871498 -15.58234017 14.65852966 -11.16796875 10.91015625 C-7.25912008 7.46614364 -3.64408309 3.72000149 0 0 Z " fill="#092DC3" transform="translate(95,32)"/>
<path d="M0 0 C-0.99 0 -1.98 0 -3 0 C-3 0.66 -3 1.32 -3 2 C-4.7015625 2.2165625 -4.7015625 2.2165625 -6.4375 2.4375 C-9.80777201 2.61171478 -9.80777201 2.61171478 -11 4 C-12.34267413 4.08631874 -13.68974322 4.10706473 -15.03515625 4.09765625 C-15.84404297 4.09443359 -16.65292969 4.09121094 -17.48632812 4.08789062 C-18.33646484 4.07951172 -19.18660156 4.07113281 -20.0625 4.0625 C-20.91650391 4.05798828 -21.77050781 4.05347656 -22.65039062 4.04882812 C-24.76695663 4.03700373 -26.88348685 4.01906769 -29 4 C-29 3.34 -29 2.68 -29 2 C-28.11699219 1.96261719 -27.23398438 1.92523438 -26.32421875 1.88671875 C-19.27312453 1.50046117 -12.9939449 0.73347339 -6.3046875 -1.57421875 C-3.49403122 -2.09347559 -2.36688296 -1.51066032 0 0 Z " fill="#0A2DC6" transform="translate(135,169)"/>
<path d="M0 0 C0.66 0.33 1.32 0.66 2 1 C1.34 1.66 0.68 2.32 0 3 C-0.3574447 5.30005663 -0.3574447 5.30005663 -0.3125 7.875 C-0.32925781 8.73867187 -0.34601563 9.60234375 -0.36328125 10.4921875 C0.0711747 13.49133499 0.91747111 14.82480589 3 17 C5.79748841 17.93249614 7.54320881 18.13476152 10.4375 18.125 C11.19933594 18.12757812 11.96117188 18.13015625 12.74609375 18.1328125 C14.95315859 18.00276015 16.87969276 17.60856199 19 17 C18.67 17.66 18.34 18.32 18 19 C17.34 19 16.68 19 16 19 C16 19.66 16 20.32 16 21 C12.04 21 8.08 21 4 21 C4 20.34 4 19.68 4 19 C3.195625 18.731875 2.39125 18.46375 1.5625 18.1875 C0.716875 17.795625 -0.12875 17.40375 -1 17 C-2.07465731 13.77602808 -2.16691803 11.32529214 -2.1875 7.9375 C-2.20167969 6.87402344 -2.21585937 5.81054688 -2.23046875 4.71484375 C-2 2 -2 2 0 0 Z " fill="#0724B1" transform="translate(98,104)"/>
<path d="M0 0 C0.33 0 0.66 0 1 0 C2.94318882 13.11652456 1.64402287 23.90566528 -4 36 C-5.16380835 32.50857495 -4.76312657 31.58621742 -3.625 28.1875 C-1.41875881 21.53784783 -0.79679559 15.07530816 -0.4375 8.125 C-0.39431641 7.34125 -0.35113281 6.5575 -0.30664062 5.75 C-0.20146649 3.83349351 -0.10032075 1.91676667 0 0 Z " fill="#0A26B4" transform="translate(163,101)"/>
<path d="M0 0 C2.65410298 2.65410298 3.76102327 4.14286119 5.25 7.4375 C5.60578125 8.19933594 5.9615625 8.96117188 6.328125 9.74609375 C7.08338373 12.27972334 6.87351072 13.54185126 6 16 C3.03 15.505 3.03 15.505 0 15 C0 13.68 0 12.36 0 11 C0.66 10.67 1.32 10.34 2 10 C1.34 6.7 0.68 3.4 0 0 Z " fill="#062FDF" transform="translate(156,85)"/>
<path d="M0 0 C4.34003579 4.14276144 5.81446188 7.48602049 6.12890625 13.44140625 C6.28461945 20.57307082 6.28461945 20.57307082 4 24 C3.93941406 23.24074219 3.87882813 22.48148438 3.81640625 21.69921875 C3.73261719 20.70535156 3.64882812 19.71148437 3.5625 18.6875 C3.44068359 17.20830078 3.44068359 17.20830078 3.31640625 15.69921875 C3.08187441 12.90624401 3.08187441 12.90624401 2 10 C2.33 9.01 2.66 8.02 3 7 C2.01 6.67 1.02 6.34 0 6 C0 4.02 0 2.04 0 0 Z " fill="#0925A0" transform="translate(193,97)"/>
<path d="M0 0 C0.33 0 0.66 0 1 0 C1.33 7.26 1.66 14.52 2 22 C1.01 21.34 0.02 20.68 -1 20 C-1.66 20.33 -2.32 20.66 -3 21 C-2.69152766 18.06202558 -2.37839777 15.12467718 -2.0625 12.1875 C-1.97548828 11.35412109 -1.88847656 10.52074219 -1.79882812 9.66210938 C-1.71181641 8.85966797 -1.62480469 8.05722656 -1.53515625 7.23046875 C-1.456604 6.49207764 -1.37805176 5.75368652 -1.29711914 4.99291992 C-1 3 -1 3 0 0 Z " fill="#072BCA" transform="translate(53,104)"/>
<path d="M0 0 C3.40414403 1.13471468 4.24276648 2.17225987 6.5 4.875 C10.5890944 9.79633275 10.5890944 9.79633275 15.6875 13.5625 C16.450625 14.036875 17.21375 14.51125 18 15 C18 15.66 18 16.32 18 17 C14.56072421 15.7580393 11.74792181 14.44259716 9 12 C9 11.34 9 10.68 9 10 C7.68 9.34 6.36 8.68 5 8 C5 7.34 5 6.68 5 6 C4.01 5.67 3.02 5.34 2 5 C0.8125 2.4375 0.8125 2.4375 0 0 Z " fill="#0E2AB9" transform="translate(68,140)"/>
<path d="M0 0 C2.875 -0.1875 2.875 -0.1875 6 0 C8.49118953 3.7367843 8.2065226 5.74451819 8.125 10.1875 C8.10695312 11.45980469 8.08890625 12.73210937 8.0703125 14.04296875 C8.03550781 15.50669922 8.03550781 15.50669922 8 17 C9.32 17 10.64 17 12 17 C12 17.66 12 18.32 12 19 C10.33388095 19.042721 8.66617115 19.04063832 7 19 C4.88074396 16.88074396 5.58168983 12.3803907 5.4375 9.4375 C5.39431641 8.63119141 5.35113281 7.82488281 5.30664062 6.99414062 C5.20024738 4.99631195 5.09959112 2.9981793 5 1 C3.35 1 1.7 1 0 1 C0 0.67 0 0.34 0 0 Z " fill="#0823B2" transform="translate(128,106)"/>
<path d="M0 0 C4.10228779 1.43992551 7.30398117 3.44493408 10.8125 6 C12.27623047 7.051875 12.27623047 7.051875 13.76953125 8.125 C14.50558594 8.74375 15.24164063 9.3625 16 10 C16 10.66 16 11.32 16 12 C16.66 12 17.32 12 18 12 C18 12.66 18 13.32 18 14 C18.66 14 19.32 14 20 14 C20.66 15.98 21.32 17.96 22 20 C21.29875 19.278125 20.5975 18.55625 19.875 17.8125 C17.94238011 15.86886803 15.94370996 14.09777169 13.8125 12.375 C11 10 11 10 9 7 C8.01 6.67 7.02 6.34 6 6 C6 5.34 6 4.68 6 4 C4.02 3.34 2.04 2.68 0 2 C0 1.34 0 0.68 0 0 Z " fill="#0B25AC" transform="translate(134,65)"/>
<path d="M0 0 C0.639375 0.309375 1.27875 0.61875 1.9375 0.9375 C5.92049104 2.31935403 9.81650849 2.6536543 14 3 C14 3.33 14 3.66 14 4 C12.35 4 10.7 4 9 4 C9 4.66 9 5.32 9 6 C8.00419922 5.85691406 8.00419922 5.85691406 6.98828125 5.7109375 C0.28354475 4.79684678 0.28354475 4.79684678 -6 7 C-5.67 6.01 -5.34 5.02 -5 4 C-2.4375 2.8125 -2.4375 2.8125 0 2 C0 1.34 0 0.68 0 0 Z " fill="#0F29B1" transform="translate(78,97)"/>
<path d="M0 0 C0.99 0.33 1.98 0.66 3 1 C4.04434887 4.32292824 4.2162055 5.56758901 2.625 8.75 C1 11 1 11 0 12 C-3.4375 11.75 -3.4375 11.75 -7 11 C-9 8 -9 8 -8.625 4.8125 C-8.41875 3.884375 -8.2125 2.95625 -8 2 C-7.67 2 -7.34 2 -7 2 C-6.67 4.64 -6.34 7.28 -6 10 C-3.36 9.34 -0.72 8.68 2 8 C1.34 5.36 0.68 2.72 0 0 Z " fill="#0927A4" transform="translate(83,107)"/>
<path d="M0 0 C0.66 0 1.32 0 2 0 C0.96770516 2.61897025 -0.09410859 5.21596715 -1.21875 7.796875 C-3.84153762 13.84208061 -5.81141015 19.51678264 -7 26 C-7.33 26 -7.66 26 -8 26 C-8.94448871 16.95739515 -6.74864303 11.59044754 -2 4 C-1.31640931 2.6752638 -0.6428446 1.34498069 0 0 Z " fill="#0929A9" transform="translate(62,78)"/>
<path d="M0 0 C2.9375 0.375 2.9375 0.375 6 1 C6.33 1.66 6.66 2.32 7 3 C6.0625 5.125 6.0625 5.125 5 7 C2.36 6.67 -0.28 6.34 -3 6 C-3 4.68 -3 3.36 -3 2 C-1.35 2 0.3 2 2 2 C1.34 1.34 0.68 0.68 0 0 Z " fill="#0536F3" transform="translate(89,152)"/>
<path d="M0 0 C0.66 0.33 1.32 0.66 2 1 C-3.36715442 8.45533991 -9.42893424 16.14979213 -18 20 C-17.505 18.515 -17.505 18.515 -17 17 C-16.34 17 -15.68 17 -15 17 C-15 16.34 -15 15.68 -15 15 C-14.01 15 -13.02 15 -12 15 C-12 14.34 -12 13.68 -12 13 C-10.02819395 11.17641627 -7.94381973 9.52997206 -5.84765625 7.8515625 C-3.80638093 5.80597158 -3.62372431 4.73090103 -3 2 C-2.01 1.34 -1.02 0.68 0 0 Z " fill="#0C27AF" transform="translate(156,138)"/>
<path d="M0 0 C0.33 0.99 0.66 1.98 1 3 C1.99 3.33 2.98 3.66 4 4 C3.67 5.32 3.34 6.64 3 8 C2.34 7.67 1.68 7.34 1 7 C1 10.3 1 13.6 1 17 C0.34 16.67 -0.32 16.34 -1 16 C-1.02685095 13.52076199 -1.04676547 11.0418116 -1.0625 8.5625 C-1.07506836 7.50192383 -1.07506836 7.50192383 -1.08789062 6.41992188 C-1.09653588 4.61306441 -1.05220011 2.80612397 -1 1 C-0.67 0.67 -0.34 0.34 0 0 Z " fill="#082BD3" transform="translate(127,107)"/>
<path d="M0 0 C1.65 0.33 3.3 0.66 5 1 C5.33 6.94 5.66 12.88 6 19 C5.34 19 4.68 19 4 19 C3.67 14.71 3.34 10.42 3 6 C2.01 5.67 1.02 5.34 0 5 C-0.75 3 -0.75 3 -1 1 C-0.67 0.67 -0.34 0.34 0 0 Z " fill="#0732EC" transform="translate(144,107)"/>
<path d="M0 0 C9.24 0 18.48 0 28 0 C28.33 0.66 28.66 1.32 29 2 C28.37544922 1.99476318 27.75089844 1.98952637 27.10742188 1.98413086 C24.23829176 1.96315924 21.36917785 1.95027624 18.5 1.9375 C17.51773438 1.92912109 16.53546875 1.92074219 15.5234375 1.91210938 C9.91325243 1.89340876 4.54849101 2.161121 -1 3 C-0.67 2.01 -0.34 1.02 0 0 Z " fill="#0A2BB3" transform="translate(97,53)"/>
<path d="M0 0 C0.33 0 0.66 0 1 0 C1 7.26 1 14.52 1 22 C-0.98 22.99 -0.98 22.99 -3 24 C-4.65 22.68 -6.3 21.36 -8 20 C-6.25 19.375 -6.25 19.375 -4 19 C-2.68 19.66 -1.36 20.32 0 21 C0 14.07 0 7.14 0 0 Z " fill="#0F2ABF" transform="translate(92,102)"/>
<path d="M0 0 C0.72445312 0.47050781 1.44890625 0.94101563 2.1953125 1.42578125 C9.40010298 6.06820817 9.40010298 6.06820817 17 10 C15.375 10.6875 15.375 10.6875 13 11 C10.96587579 10.07137808 8.96752828 9.06246527 7 8 C5.01132287 7.30028027 3.01391949 6.62335603 1 6 C0.67 4.02 0.34 2.04 0 0 Z " fill="#04229F" transform="translate(73,156)"/>
<path d="M0 0 C0 0.99 0 1.98 0 3 C-0.66 3 -1.32 3 -2 3 C-2.23460937 3.56203125 -2.46921875 4.1240625 -2.7109375 4.703125 C-4.30663 7.54635891 -6.28924543 9.48098127 -8.625 11.75 C-9.85089844 12.94882813 -9.85089844 12.94882813 -11.1015625 14.171875 C-11.72804687 14.77515625 -12.35453125 15.3784375 -13 16 C-13.66 15.67 -14.32 15.34 -15 15 C-13.71937515 13.2925002 -12.38232443 11.62626404 -11 10 C-10.34 10 -9.68 10 -9 10 C-9 9.34 -9 8.68 -9 8 C-8.34 8 -7.68 8 -7 8 C-6.6596875 7.13375 -6.6596875 7.13375 -6.3125 6.25 C-4.66961977 3.4336339 -2.60466773 1.91922886 0 0 Z " fill="#0B2CB2" transform="translate(181,139)"/>
<path d="M0 0 C0.33 1.65 0.66 3.3 1 5 C-3.41019868 6.47006623 -6.69388031 5.43537323 -11 4 C-9.73760288 3.13341385 -8.46472499 2.28207941 -7.1875 1.4375 C-6.47980469 0.96183594 -5.77210937 0.48617187 -5.04296875 -0.00390625 C-3 -1 -3 -1 0 0 Z " fill="#0636F1" transform="translate(95,66)"/>
<path d="M0 0 C0.66 0.33 1.32 0.66 2 1 C0.54782324 2.50596108 -0.91192861 4.00462104 -2.375 5.5 C-3.18710938 6.3353125 -3.99921875 7.170625 -4.8359375 8.03125 C-7 10 -7 10 -9 10 C-9.268125 10.639375 -9.53625 11.27875 -9.8125 11.9375 C-11 14 -11 14 -14 15 C-14 14.34 -14 13.68 -14 13 C-13.34 13 -12.68 13 -12 13 C-11.67 11.68 -11.34 10.36 -11 9 C-10.01 9 -9.02 9 -8 9 C-7.79375 8.443125 -7.5875 7.88625 -7.375 7.3125 C-5.44999226 4.07498698 -2.96149098 2.31768859 0 0 Z " fill="#082EAF" transform="translate(164,156)"/>
<path d="M0 0 C0.33 0 0.66 0 1 0 C1 4.95 1 9.9 1 15 C1.99 15.33 2.98 15.66 4 16 C4 16.33 4 16.66 4 17 C1.69 17 -0.62 17 -3 17 C-3 16.34 -3 15.68 -3 15 C-3.66 14.67 -4.32 14.34 -5 14 C-4.34 13.34 -3.68 12.68 -3 12 C-2.67 11.01 -2.34 10.02 -2 9 C-1.67 9.66 -1.34 10.32 -1 11 C-0.67 7.37 -0.34 3.74 0 0 Z " fill="#062EE0" transform="translate(119,109)"/>
<path d="M0 0 C1.4540625 0.0309375 1.4540625 0.0309375 2.9375 0.0625 C3.2675 1.0525 3.5975 2.0425 3.9375 3.0625 C3.2775 3.0625 2.6175 3.0625 1.9375 3.0625 C0.9475 4.5475 0.9475 4.5475 -0.0625 6.0625 C-1.0625 7.0625 -1.0625 7.0625 -4.0625 9.0625 C-4.16015625 2.91015625 -4.16015625 2.91015625 -4.0625 1.0625 C-3.0625 0.0625 -3.0625 0.0625 0 0 Z " fill="#082FD7" transform="translate(80.0625,105.9375)"/>
<path d="M0 0 C0.33 0.66 0.66 1.32 1 2 C0.01 2 -0.98 2 -2 2 C-2.66 4.31 -3.32 6.62 -4 9 C-4.8971875 9.12375 -4.8971875 9.12375 -5.8125 9.25 C-9.22045876 10.418443 -10.44181344 12.88362688 -12 16 C-12.66 15.67 -13.32 15.34 -14 15 C-12.55922954 11.63820226 -10.75249979 9.40843732 -8 7 C-7.34 7 -6.68 7 -6 7 C-5.690625 6.38125 -5.38125 5.7625 -5.0625 5.125 C-3 1 -3 1 0 0 Z " fill="#0737EC" transform="translate(99,31)"/>
<path d="M0 0 C0.33 0 0.66 0 1 0 C1.12117188 1.04800781 1.24234375 2.09601563 1.3671875 3.17578125 C1.53603945 4.55473886 1.70533341 5.93364239 1.875 7.3125 C1.95363281 8.00279297 2.03226563 8.69308594 2.11328125 9.40429688 C2.55943847 12.95639471 2.97980193 14.9697029 5 18 C5 18.99 5 19.98 5 21 C4.34 21 3.68 21 3 21 C-0.726892 13.62619222 -1.42152184 8.12739664 0 0 Z " fill="#0521C7" transform="translate(27,107)"/>
<path d="M0 0 C0.66 0 1.32 0 2 0 C5.46626017 6.62964323 8.36540529 12.32648896 8 20 C7.67 20 7.34 20 7 20 C6.81824219 19.34773438 6.63648438 18.69546875 6.44921875 18.0234375 C5.02026917 13.05508972 3.41205577 8.59439194 1 4 C1 3.34 1 2.68 1 2 C0.34 1.67 -0.32 1.34 -1 1 C-0.67 0.67 -0.34 0.34 0 0 Z " fill="#0B23AC" transform="translate(162,80)"/>
<path d="M0 0 C0.33 0.99 0.66 1.98 1 3 C6.61 3 12.22 3 18 3 C18 3.33 18 3.66 18 4 C14.04 4 10.08 4 6 4 C5.67 4.66 5.34 5.32 5 6 C5 5.34 5 4.68 5 4 C3.02 4.33 1.04 4.66 -1 5 C-1.66 3.68 -2.32 2.36 -3 1 C-2.01 0.67 -1.02 0.34 0 0 Z " fill="#022FF1" transform="translate(105,170)"/>
<path d="M0 0 C6.62177926 0.30656385 11.22125154 1.74288723 17 5 C17 5.99 17 6.98 17 8 C16.35933594 7.66226563 15.71867188 7.32453125 15.05859375 6.9765625 C10.08816104 4.41356739 5.44208502 2.30136816 0 1 C0 0.67 0 0.34 0 0 Z " fill="#0A28B5" transform="translate(126,55)"/>
<path d="M0 0 C0.66 0.33 1.32 0.66 2 1 C2.50595838 2.85518074 3.00035322 4.71455698 3.42578125 6.58984375 C4.42435045 10.7811172 5.73450886 14.88293549 7 19 C3.66313968 16.34032604 2.59175655 12.83970913 1.25 8.9375 C1.01667969 8.30005859 0.78335938 7.66261719 0.54296875 7.00585938 C-0.03671139 5.35880412 -0.52526514 3.68031154 -1 2 C-0.67 1.34 -0.34 0.68 0 0 Z " fill="#0723B9" transform="translate(61,120)"/>
<path d="M0 0 C1.65 0 3.3 0 5 0 C0.65757571 4.34242429 -3.13551546 4.7444669 -9 5 C-8 3 -8 3 -5.625 1.8125 C-3 1 -3 1 0 2 C0 1.34 0 0.68 0 0 Z " fill="#0435EE" transform="translate(122,192)"/>
<path d="M0 0 C1.32 0.33 2.64 0.66 4 1 C4 1.99 4 2.98 4 4 C2.80375 3.95875 1.6075 3.9175 0.375 3.875 C-3.42329953 3.86148292 -6.44975618 4.57990247 -10 6 C-10 4.68 -10 3.36 -10 2 C-6.7 1.67 -3.4 1.34 0 1 C0 0.67 0 0.34 0 0 Z " fill="#0522BD" transform="translate(110,98)"/>
<path d="M0 0 C1.81325551 0.11351517 3.62563357 0.24112961 5.4375 0.375 C6.95150391 0.47941406 6.95150391 0.47941406 8.49609375 0.5859375 C9.32238281 0.72257812 10.14867188 0.85921875 11 1 C11.33 1.66 11.66 2.32 12 3 C5.4 3 -1.2 3 -8 3 C-8 2.67 -8 2.34 -8 2 C-5.36 1.67 -2.72 1.34 0 1 C0 0.67 0 0.34 0 0 Z " fill="#042EE4" transform="translate(112,50)"/>
<path d="M0 0 C0.99 0.33 1.98 0.66 3 1 C3 1.66 3 2.32 3 3 C-4.42857143 5.42857143 -4.42857143 5.42857143 -8 4 C-3.375 0 -3.375 0 0 0 Z M-6 5 C-4 6 -4 6 -4 6 Z " fill="#083AFA" transform="translate(153,162)"/>
<path d="M0 0 C0.66 0 1.32 0 2 0 C1.19631101 5.22397847 -2.14191973 9.52772776 -6 13 C-6.66 12.67 -7.32 12.34 -8 12 C-6.71937515 10.2925002 -5.38232443 8.62626404 -4 7 C-3.34 7 -2.68 7 -2 7 C-1.855625 6.21625 -1.71125 5.4325 -1.5625 4.625 C-1 2 -1 2 0 0 Z " fill="#0A2AAC" transform="translate(195,121)"/>
<path d="M0 0 C0.66 0.33 1.32 0.66 2 1 C0.9375 2.5625 0.9375 2.5625 -1 4 C-2.134375 3.835 -3.26875 3.67 -4.4375 3.5 C-7.95060828 2.62987586 -7.95060828 2.62987586 -10.4375 4.4375 C-10.953125 4.953125 -11.46875 5.46875 -12 6 C-12 3 -12 3 -10 1 C-8.125 0.83984375 -8.125 0.83984375 -6 0.9375 C-2.88158436 1.09598803 -2.88158436 1.09598803 0 0 Z " fill="#071BB2" transform="translate(115,105)"/>
<path d="M0 0 C0 0.33 0 0.66 0 1 C-2.31 1.33 -4.62 1.66 -7 2 C-7.33 2.99 -7.66 3.98 -8 5 C-10.86724686 4.42655063 -11.8614515 4.1385485 -14 2 C-9.35150485 -0.3992233 -5.08913926 -0.19957409 0 0 Z " fill="#0330E6" transform="translate(117,27)"/>
<path d="M0 0 C4 0 4 0 6 1 C5.67 1.99 5.34 2.98 5 4 C5 4.66 5 5.32 5 6 C4.67 6.99 4.34 7.98 4 9 C3.01 8.34 2.02 7.68 1 7 C0.3125 3.375 0.3125 3.375 0 0 Z " fill="#0332EE" transform="translate(66,132)"/>
<path d="M0 0 C3.93809611 3.76687454 3.93809611 3.76687454 4.09765625 6.9453125 C4.06510417 8.96354167 4.03255208 10.98177083 4 13 C3.34 12.01 2.68 11.02 2 10 C2.33 9.01 2.66 8.02 3 7 C2.01 6.67 1.02 6.34 0 6 C0 4.02 0 2.04 0 0 Z " fill="#082DCC" transform="translate(193,97)"/>
<path d="M0 0 C1.423125 0.495 1.423125 0.495 2.875 1 C5.77062452 2.10159191 5.77062452 2.10159191 8 2 C8 3.98 8 5.96 8 8 C6.85073734 7.04578192 5.70569459 6.08647955 4.5625 5.125 C3.92441406 4.59132813 3.28632813 4.05765625 2.62890625 3.5078125 C1 2 1 2 0 0 Z " fill="#082CBF" transform="translate(148,65)"/>
<path d="M0 0 C0.99 0.33 1.98 0.66 3 1 C3 1.99 3 2.98 3 4 C3.99 4.33 4.98 4.66 6 5 C6.6875 7.0625 6.6875 7.0625 7 9 C5.1875 8.875 5.1875 8.875 3 8 C0 2.96428571 0 2.96428571 0 0 Z " fill="#042FD6" transform="translate(141,56)"/>
<path d="M0 0 C3.59634744 3.49359465 6.83451967 7.11098131 10 11 C5.32503988 9.7978674 3.53616659 7.45867887 0.91796875 3.65625 C0 2 0 2 0 0 Z " fill="#0625B0" transform="translate(63,145)"/>
<path d="M0 0 C0.33 0.99 0.66 1.98 1 3 C-0.375 4.5 -0.375 4.5 -2 6 C-2.66 6 -3.32 6 -4 6 C-4 6.66 -4 7.32 -4 8 C-4.99 7.67 -5.98 7.34 -7 7 C-2.25 1.125 -2.25 1.125 0 0 Z " fill="#0727B9" transform="translate(79,72)"/>
<path d="M0 0 C1.45742463 -0.08096803 2.91612807 -0.13917774 4.375 -0.1875 C5.18710938 -0.22230469 5.99921875 -0.25710937 6.8359375 -0.29296875 C7.55007812 -0.19628906 8.26421875 -0.09960938 9 0 C9.66 0.99 10.32 1.98 11 3 C10.67 3.99 10.34 4.98 10 6 C9.34 5.01 8.68 4.02 8 3 C5.67182036 2.63239269 3.3381615 2.29758419 1 2 C0.67 1.34 0.34 0.68 0 0 Z " fill="#0624BD" transform="translate(144,100)"/>
<path d="M0 0 C1.62490954 -0.02698189 3.24994633 -0.04638757 4.875 -0.0625 C5.77992188 -0.07410156 6.68484375 -0.08570313 7.6171875 -0.09765625 C10 0 10 0 12 1 C12 1.99 12 2.98 12 4 C10.1858073 3.71905418 8.37364999 3.42493567 6.5625 3.125 C5.04849609 2.88136719 5.04849609 2.88136719 3.50390625 2.6328125 C2.67761719 2.42398438 1.85132812 2.21515625 1 2 C0.67 1.34 0.34 0.68 0 0 Z " fill="#0334E8" transform="translate(125,53)"/>
<path d="M0 0 C4.1424367 1.38081223 5.32203099 3.59825558 8 7 C7.01 7.33 6.02 7.66 5 8 C5 7.34 5 6.68 5 6 C4.01 5.67 3.02 5.34 2 5 C0.8125 2.4375 0.8125 2.4375 0 0 Z " fill="#0728C4" transform="translate(68,140)"/>
<path d="M0 0 C0.99 0.33 1.98 0.66 3 1 C1.46191023 4.07617954 -1.12096091 5.23732301 -4 7 C-4.66 7 -5.32 7 -6 7 C-5.67 6.01 -5.34 5.02 -5 4 C-2.4375 2.8125 -2.4375 2.8125 0 2 C0 1.34 0 0.68 0 0 Z " fill="#082ECC" transform="translate(78,97)"/>
<path d="M0 0 C1 2 1 2 0.8125 4 C0 6 0 6 -2.0625 7.25 C-3.0215625 7.62125 -3.0215625 7.62125 -4 8 C-4.66 6.35 -5.32 4.7 -6 3 C-5.34 2.34 -4.68 1.68 -4 1 C-3.67 1.99 -3.34 2.98 -3 4 C-2.34 4.33 -1.68 4.66 -1 5 C-0.67 3.35 -0.34 1.7 0 0 Z " fill="#0632E7" transform="translate(158,132)"/>
<path d="M0 0 C1.258125 -0.04125 2.51625 -0.0825 3.8125 -0.125 C4.52019531 -0.14820313 5.22789063 -0.17140625 5.95703125 -0.1953125 C8 0 8 0 11 2 C6.70700357 3.26264601 4.12168689 2.62950412 0 1 C0 0.67 0 0.34 0 0 Z " fill="#0B2BCC" transform="translate(102,196)"/>
<path d="M0 0 C4.8 2.46153846 4.8 2.46153846 5.8125 5.1875 C5.874375 5.785625 5.93625 6.38375 6 7 C4.35 6.67 2.7 6.34 1 6 C0.67 4.02 0.34 2.04 0 0 Z " fill="#082AC9" transform="translate(73,156)"/>
<path d="M0 0 C1.65 0 3.3 0 5 0 C3.35 1.98 1.7 3.96 0 6 C-1 3 -1 3 0 0 Z " fill="#0737EE" transform="translate(146,145)"/>
<path d="M0 0 C2.31 0.33 4.62 0.66 7 1 C6.01 1.495 6.01 1.495 5 2 C5.66 3.65 6.32 5.3 7 7 C5.83040013 6.02433888 4.66438823 5.044375 3.5 4.0625 C2.8503125 3.51722656 2.200625 2.97195312 1.53125 2.41015625 C1.0259375 1.94480469 0.520625 1.47945312 0 1 C0 0.67 0 0.34 0 0 Z " fill="#0836EF" transform="translate(41,136)"/>
<path d="M0 0 C1.32 0 2.64 0 4 0 C4.33 0.99 4.66 1.98 5 3 C3.35 3.33 1.7 3.66 0 4 C0 2.68 0 1.36 0 0 Z " fill="#0631E8" transform="translate(86,154)"/>
<path d="M0 0 C1.98 0 3.96 0 6 0 C5.67 0.99 5.34 1.98 5 3 C4.01 3 3.02 3 2 3 C1.67 3.66 1.34 4.32 1 5 C0.67 3.35 0.34 1.7 0 0 Z " fill="#0C3DF7" transform="translate(156,100)"/>
<path d="M0 0 C3.0916909 2.52956528 3.90931332 5.22454612 5 9 C3.0625 8.4375 3.0625 8.4375 1 7 C0.25 3.375 0.25 3.375 0 0 Z " fill="#0D27B0" transform="translate(156,85)"/>
<path d="M0 0 C0.66 0.66 1.32 1.32 2 2 C-0.3125 4.5 -0.3125 4.5 -3 7 C-3.99 7 -4.98 7 -6 7 C-4.02 4.69 -2.04 2.38 0 0 Z " fill="#0824B9" transform="translate(78,48)"/>
</svg>
